<svg width="868" height="789" viewBox="0 0 868 789" fill="none" xmlns="http://www.w3.org/2000/svg">
<g filter="url(#filter0_d_308_995)">
<path fill-rule="evenodd" clip-rule="evenodd" d="M50 377.197C50 374.245 51.1727 371.414 53.26 369.327C55.3474 367.24 58.1785 366.068 61.1304 366.068H275.503C278.455 366.068 281.286 367.24 283.373 369.327C285.46 371.414 286.633 374.245 286.633 377.197V593.99C286.633 596.942 285.46 599.773 283.373 601.86C281.286 603.947 278.455 605.119 275.503 605.119H61.1304C58.1785 605.119 55.3474 603.947 53.26 601.86C51.1727 599.773 50 596.942 50 593.99V377.197ZM315.628 377.108C315.628 374.156 316.801 371.325 318.888 369.238C320.975 367.151 323.806 365.979 326.758 365.979H541.13C544.082 365.979 546.913 367.151 549.001 369.238C551.088 371.325 552.261 374.156 552.261 377.108V593.89C552.261 596.842 551.088 599.673 549.001 601.76C546.913 603.847 544.082 605.019 541.13 605.019H326.758C323.806 605.019 320.975 603.847 318.888 601.76C316.801 599.673 315.628 596.842 315.628 593.89V377.108Z" fill="url(#paint0_linear_308_995)"/>
<path fill-rule="evenodd" clip-rule="evenodd" d="M581.258 377.108C581.258 374.156 582.43 371.325 584.518 369.238C586.605 367.151 589.436 365.979 592.388 365.979H806.76C809.712 365.979 812.543 367.151 814.631 369.238C816.718 371.325 817.891 374.156 817.891 377.108V593.89C817.891 596.842 816.718 599.673 814.631 601.76C812.543 603.847 809.712 605.019 806.76 605.019H592.388C589.436 605.019 586.605 603.847 584.518 601.76C582.43 599.673 581.258 596.842 581.258 593.89V377.108Z" fill="url(#paint1_linear_308_995)"/>
<path fill-rule="evenodd" clip-rule="evenodd" d="M318.913 271.794C318.913 270.463 319.187 269.146 319.718 267.926C320.249 266.706 321.026 265.608 322.001 264.702C322.975 263.795 324.126 263.099 325.382 262.658C326.637 262.216 327.97 262.037 329.298 262.134L574.702 279.74C576.101 279.815 577.471 280.165 578.734 280.77C579.998 281.375 581.13 282.222 582.066 283.265C583.002 284.307 583.723 285.523 584.189 286.844C584.655 288.165 584.856 289.565 584.78 290.964C584.705 292.362 584.355 293.732 583.75 294.996C583.145 296.259 582.298 297.391 581.255 298.327C580.213 299.262 578.996 299.984 577.675 300.449C576.354 300.915 574.954 301.116 573.555 301.041L319.025 292.06L199.996 298.125C199.768 298.117 199.551 298.026 199.386 297.87C199.221 297.713 199.118 297.502 199.098 297.275C199.077 297.048 199.14 296.822 199.275 296.638C199.409 296.455 199.606 296.326 199.829 296.278L310.499 281.398C312.826 281.088 314.961 279.943 316.507 278.176C318.053 276.409 318.915 274.141 318.913 271.794ZM631.678 293.696C631.678 289.812 634.984 286.74 638.869 287.018L808.63 299.205C810.583 299.309 812.414 300.185 813.721 301.64C815.027 303.095 815.703 305.009 815.598 306.962C815.493 308.914 814.617 310.745 813.162 312.051C811.707 313.358 809.793 314.033 807.84 313.928L631.756 307.718L586.489 310.033C585.927 310.061 585.376 309.871 584.95 309.503C584.525 309.134 584.259 308.615 584.207 308.055C584.155 307.495 584.322 306.936 584.673 306.496C585.023 306.056 585.53 305.768 586.088 305.693L625.868 300.351C627.479 300.135 628.957 299.341 630.026 298.116C631.095 296.892 631.682 295.321 631.678 293.696ZM631.678 124.757C631.677 125.818 631.352 126.854 630.748 127.727C630.144 128.6 629.288 129.268 628.295 129.643L585.131 146.002C584.788 146.143 584.512 146.41 584.36 146.748C584.208 147.087 584.192 147.47 584.315 147.82C584.437 148.17 584.69 148.459 585.02 148.629C585.35 148.798 585.732 148.834 586.088 148.729C601.281 143.899 616.452 139.047 631.656 134.239C631.656 134.239 631.678 134.239 631.678 134.261C631.678 134.272 631.678 134.283 631.701 134.283C697.203 146.614 755.983 157.677 808.964 167.671C810.393 167.958 811.877 167.667 813.091 166.86C814.305 166.053 815.149 164.798 815.436 163.369C815.724 161.941 815.433 160.456 814.626 159.243C813.819 158.029 812.563 157.185 811.135 156.898L638.023 119.615C637.257 119.451 636.464 119.46 635.702 119.642C634.94 119.824 634.229 120.175 633.62 120.668C633.011 121.161 632.521 121.784 632.185 122.492C631.849 123.2 631.676 123.974 631.678 124.757ZM631.678 158.233C631.679 159.404 631.311 160.545 630.625 161.494C629.94 162.443 628.972 163.152 627.861 163.519L585.287 177.598C584.881 177.719 584.54 177.996 584.338 178.368C584.137 178.741 584.092 179.178 584.213 179.584C584.334 179.99 584.611 180.331 584.984 180.533C585.356 180.734 585.794 180.779 586.2 180.658L629.53 169.173C631.022 168.772 632.591 168.694 634.127 168.939C698.561 179.111 756.44 188.248 808.697 196.517C810.23 196.78 811.806 196.423 813.076 195.524C814.346 194.626 815.207 193.259 815.47 191.726C815.732 190.193 815.375 188.618 814.477 187.348C813.578 186.078 812.212 185.217 810.678 184.954L638.268 152.769C637.464 152.618 636.636 152.647 635.844 152.853C635.053 153.058 634.316 153.436 633.687 153.959C633.057 154.482 632.551 155.137 632.204 155.877C631.857 156.618 631.678 157.426 631.678 158.244V158.233ZM631.678 191.876C631.68 193.159 631.262 194.406 630.489 195.429C629.715 196.452 628.628 197.194 627.393 197.541L591.475 207.646C590.671 207.873 589.824 207.911 589.003 207.756C588.181 207.6 587.407 207.257 586.74 206.753C586.074 206.248 585.534 205.596 585.162 204.847C584.79 204.098 584.596 203.274 584.597 202.438C584.594 201.126 584.116 199.861 583.249 198.876C582.383 197.891 581.189 197.255 579.889 197.085L328.953 164.566C327.698 164.402 326.423 164.509 325.213 164.878C324.002 165.247 322.885 165.87 321.935 166.705C320.984 167.541 320.223 168.569 319.702 169.722C319.181 170.875 318.912 172.126 318.913 173.391C318.913 175.399 318.233 177.347 316.984 178.919C315.735 180.491 313.99 181.594 312.035 182.049L199.884 208.169C199.694 208.221 199.531 208.343 199.427 208.51C199.324 208.678 199.287 208.878 199.325 209.071C199.363 209.264 199.473 209.436 199.633 209.551C199.792 209.667 199.989 209.718 200.185 209.694L317.633 191.131C318.565 190.985 319.511 190.959 320.449 191.053C417.596 200.446 504.48 208.881 582.56 216.46C582.818 216.485 583.078 216.456 583.323 216.374C583.569 216.293 583.795 216.161 583.987 215.987C584.179 215.813 584.332 215.601 584.437 215.364C584.542 215.128 584.596 214.872 584.597 214.613C584.597 213.722 585.22 212.966 586.077 212.777L631.823 203.117L631.845 203.094C697.092 211.385 755.638 218.864 808.441 225.597C810.082 225.83 811.749 225.402 813.074 224.407C814.4 223.411 815.276 221.93 815.509 220.289C815.742 218.648 815.314 216.981 814.318 215.656C813.322 214.33 811.841 213.455 810.2 213.222L638.479 186.067C637.64 185.935 636.783 185.986 635.965 186.218C635.148 186.449 634.391 186.855 633.745 187.407C633.1 187.959 632.582 188.645 632.227 189.416C631.872 190.188 631.689 191.027 631.69 191.876H631.678ZM631.678 225.631C631.678 228.491 629.708 230.972 626.915 231.629L586.021 241.144C585.851 241.183 585.674 241.182 585.504 241.143C585.333 241.104 585.174 241.027 585.037 240.918C584.9 240.809 584.79 240.671 584.714 240.514C584.637 240.356 584.597 240.184 584.597 240.009C584.596 239.721 584.488 239.444 584.295 239.23C584.102 239.017 583.837 238.882 583.55 238.852L329.12 213.277C327.829 213.148 326.526 213.291 325.294 213.697C324.062 214.102 322.928 214.761 321.967 215.631C321.005 216.502 320.236 217.564 319.711 218.749C319.185 219.935 318.913 221.218 318.913 222.514C318.913 224.684 318.152 226.785 316.763 228.452C315.374 230.119 313.445 231.247 311.311 231.64L199.84 252.118C199.636 252.164 199.456 252.286 199.338 252.458C199.219 252.631 199.169 252.841 199.199 253.049C199.228 253.256 199.335 253.445 199.497 253.577C199.659 253.71 199.865 253.777 200.074 253.765L319.125 241.345L319.136 241.334L576.995 258.406C577.97 258.471 578.948 258.336 579.868 258.007C580.788 257.679 581.631 257.165 582.344 256.496C583.057 255.828 583.625 255.021 584.013 254.124C584.4 253.227 584.599 252.26 584.597 251.283C584.597 249.587 585.203 247.947 586.304 246.658C587.406 245.368 588.932 244.514 590.607 244.249L630.365 237.973C631.296 237.824 632.242 237.794 633.181 237.884L808.218 254.855C809.083 254.953 809.958 254.879 810.794 254.638C811.63 254.396 812.41 253.993 813.09 253.451C813.771 252.908 814.337 252.237 814.758 251.475C815.178 250.714 815.445 249.877 815.542 249.013C815.639 248.148 815.565 247.273 815.324 246.437C815.083 245.601 814.68 244.821 814.137 244.141C813.595 243.461 812.923 242.895 812.162 242.474C811.4 242.053 810.563 241.787 809.699 241.69L638.624 219.521C637.755 219.408 636.871 219.483 636.033 219.739C635.195 219.995 634.421 220.428 633.764 221.007C633.106 221.587 632.58 222.3 632.22 223.099C631.861 223.898 631.676 224.754 631.678 225.631ZM631.678 259.619C631.675 261.116 631.148 262.566 630.189 263.716C629.229 264.866 627.898 265.645 626.425 265.918L585.854 273.374C585.339 273.469 584.881 273.759 584.575 274.185C584.269 274.61 584.14 275.137 584.215 275.656C584.29 276.174 584.563 276.644 584.977 276.965C585.39 277.287 585.912 277.436 586.433 277.381L630.899 272.74C631.523 272.673 632.157 272.662 632.792 272.706L808.018 284.292C809.866 284.445 811.699 283.858 813.114 282.66C814.53 281.462 815.411 279.751 815.564 277.904C815.718 276.056 815.131 274.223 813.933 272.808C812.735 271.393 811.023 270.512 809.176 270.358L638.735 253.219C637.842 253.129 636.939 253.227 636.086 253.508C635.233 253.789 634.448 254.246 633.783 254.849C633.117 255.452 632.586 256.189 632.224 257.01C631.861 257.832 631.675 258.721 631.678 259.619ZM631.678 327.995C631.678 324.045 634.984 320.884 638.935 321.051L808.497 328.296C810.43 328.337 812.268 329.145 813.606 330.541C814.944 331.937 815.673 333.808 815.631 335.741C815.59 337.674 814.782 339.512 813.386 340.85C811.989 342.188 810.118 342.916 808.185 342.875H594.981L584.619 342.853L584.597 342.864L584.586 342.886H265.854L199.05 342.686C199.023 342.686 198.998 342.696 198.979 342.715C198.96 342.734 198.949 342.759 198.949 342.786C198.949 342.812 198.939 342.838 198.92 342.857C198.901 342.875 198.876 342.886 198.849 342.886H96.1821L50.6586 342.741C50.499 342.728 50.3495 342.658 50.2384 342.542C50.1272 342.427 50.0621 342.275 50.0553 342.115C50.0484 341.955 50.1003 341.798 50.2012 341.673C50.3021 341.549 50.445 341.466 50.603 341.439L126.424 334.94C128.15 334.789 129.757 333.997 130.927 332.72C132.098 331.442 132.747 329.772 132.746 328.04C132.746 324.111 136.029 320.962 139.969 321.14C157.422 321.874 174.396 322.587 190.902 323.299C195.399 323.488 198.949 327.194 198.949 331.69C198.949 336.609 203.157 340.482 208.065 340.059L309.72 331.379C312.228 331.164 314.565 330.016 316.267 328.161C317.97 326.306 318.914 323.88 318.913 321.362C318.913 315.653 323.688 311.09 329.398 311.335L577.039 321.908C579.075 321.997 580.997 322.868 582.405 324.341C583.814 325.813 584.599 327.772 584.597 329.809C584.599 330.902 584.828 331.982 585.269 332.982C585.71 333.982 586.353 334.879 587.159 335.617C587.964 336.356 588.914 336.919 589.948 337.272C590.982 337.624 592.078 337.759 593.167 337.667L625.323 334.929C627.058 334.778 628.674 333.983 629.85 332.699C631.027 331.415 631.679 329.737 631.678 327.995ZM132.746 293.874C132.746 289.979 136.051 286.918 139.925 287.196L190.101 290.802C192.577 290.999 194.878 292.154 196.515 294.023C198.151 295.891 198.993 298.325 198.861 300.805C198.729 303.285 197.633 305.616 195.808 307.3C193.982 308.984 191.571 309.889 189.088 309.822L132.812 307.818L50.7811 312.025C50.6286 312.013 50.4853 311.948 50.3766 311.841C50.2679 311.733 50.2009 311.59 50.1875 311.438C50.1741 311.286 50.2153 311.134 50.3036 311.009C50.3919 310.884 50.5217 310.795 50.6698 310.757L126.958 300.496C128.561 300.28 130.031 299.49 131.096 298.272C132.16 297.054 132.747 295.491 132.746 293.874ZM132.746 125.48C132.745 126.541 132.422 127.575 131.82 128.448C131.217 129.32 130.364 129.989 129.373 130.366L50.7811 160.103C50.6778 160.14 50.5933 160.216 50.5464 160.315C50.4994 160.414 50.4937 160.528 50.5306 160.631C50.5675 160.735 50.644 160.819 50.7431 160.866C50.8423 160.913 50.956 160.919 51.0593 160.882C78.2844 152.257 105.465 143.532 132.723 134.94L132.746 134.951L190.59 145.858C192.421 146.227 194.323 145.853 195.878 144.82C197.433 143.787 198.514 142.179 198.883 140.349C199.252 138.519 198.878 136.617 197.845 135.062C196.812 133.507 195.203 132.427 193.373 132.058L139.101 120.339C138.337 120.172 137.545 120.179 136.784 120.36C136.022 120.54 135.311 120.888 134.703 121.379C134.094 121.87 133.603 122.492 133.266 123.198C132.93 123.904 132.755 124.676 132.757 125.458L132.746 125.48ZM132.746 158.845C132.745 160.013 132.377 161.15 131.693 162.097C131.01 163.044 130.047 163.751 128.939 164.12L50.9258 189.917C50.8212 189.961 50.7367 190.042 50.6886 190.145C50.6406 190.247 50.6324 190.364 50.6657 190.473C50.699 190.581 50.7715 190.673 50.8689 190.731C50.9664 190.789 51.0818 190.808 51.1929 190.786L130.609 169.741C132.108 169.343 133.674 169.264 135.205 169.507L190.234 178.221C191.21 178.389 192.209 178.363 193.175 178.145C194.141 177.927 195.054 177.521 195.863 176.95C196.671 176.379 197.36 175.654 197.888 174.817C198.417 173.981 198.776 173.048 198.944 172.072C199.112 171.097 199.086 170.097 198.868 169.132C198.65 168.166 198.244 167.253 197.673 166.444C197.102 165.636 196.377 164.947 195.54 164.419C194.703 163.89 193.77 163.532 192.794 163.364L139.335 153.381C138.533 153.231 137.707 153.259 136.917 153.463C136.127 153.668 135.391 154.043 134.762 154.564C134.134 155.084 133.627 155.736 133.278 156.474C132.93 157.212 132.748 158.018 132.746 158.834V158.845ZM132.746 192.377C132.745 193.655 132.327 194.897 131.556 195.916C130.784 196.934 129.701 197.673 128.472 198.019L50.7143 219.888C50.5927 219.929 50.4909 220.014 50.4292 220.127C50.3675 220.24 50.3504 220.371 50.3812 220.496C50.412 220.62 50.4885 220.729 50.5956 220.8C50.7026 220.871 50.8324 220.899 50.9592 220.878L132.913 203.539L189.9 210.818C192.011 211.119 194.155 210.569 195.86 209.29C197.566 208.01 198.693 206.106 198.994 203.996C199.295 201.885 198.745 199.742 197.466 198.037C196.186 196.331 194.282 195.204 192.171 194.903L139.524 186.579C138.687 186.447 137.832 186.498 137.017 186.728C136.202 186.958 135.447 187.362 134.802 187.912C134.158 188.462 133.641 189.145 133.286 189.914C132.931 190.682 132.747 191.53 132.746 192.377ZM132.746 226.02C132.746 228.869 130.787 231.351 128.004 231.996L50.6698 250.003C50.5325 250.03 50.4114 250.11 50.3331 250.226C50.2549 250.341 50.2258 250.484 50.2524 250.621C50.2789 250.758 50.359 250.879 50.4748 250.957C50.5906 251.036 50.7328 251.065 50.8701 251.038L131.41 238.307C132.341 238.157 133.287 238.128 134.226 238.217L189.589 243.593C191.788 243.755 193.965 243.059 195.663 241.652C197.361 240.244 198.449 238.234 198.698 236.043C198.947 233.852 198.338 231.65 196.999 229.897C195.66 228.145 193.694 226.979 191.514 226.643L139.68 219.921C138.813 219.809 137.932 219.883 137.096 220.138C136.26 220.393 135.488 220.824 134.832 221.401C134.175 221.978 133.65 222.689 133.29 223.485C132.93 224.282 132.745 225.146 132.746 226.02ZM132.746 259.875C132.747 261.369 132.224 262.817 131.268 263.965C130.313 265.114 128.984 265.892 127.514 266.163L50.6364 280.296C50.5024 280.335 50.3867 280.42 50.3106 280.537C50.2345 280.653 50.203 280.793 50.2219 280.932C50.2409 281.07 50.309 281.196 50.4137 281.288C50.5185 281.38 50.6529 281.431 50.7922 281.432L132.913 272.873L189.344 276.602C191.667 276.696 193.937 275.889 195.68 274.35C197.422 272.811 198.503 270.658 198.695 268.341C198.888 266.024 198.177 263.722 196.713 261.916C195.248 260.111 193.142 258.94 190.835 258.65L139.78 253.52C138.891 253.43 137.993 253.527 137.144 253.805C136.295 254.083 135.514 254.536 134.851 255.135C134.189 255.734 133.659 256.465 133.296 257.282C132.933 258.098 132.746 258.981 132.746 259.875ZM318.913 27.5672C318.913 29.1047 318.444 30.6056 317.569 31.8701C316.694 33.1345 315.455 34.1025 314.016 34.6452L200.062 77.7813C199.909 77.8345 199.783 77.9464 199.712 78.0925C199.641 78.2386 199.631 78.4069 199.684 78.5604C199.737 78.7139 199.849 78.84 199.995 78.9109C200.141 78.9819 200.31 78.9919 200.463 78.9388C239.932 66.3964 279.389 53.776 318.891 41.2892C318.891 41.2892 318.913 41.2892 318.913 41.3115L318.936 41.3338L575.192 89.6004C577.258 90.0166 579.405 89.5949 581.16 88.4282C582.916 87.2616 584.136 85.4454 584.552 83.3793C584.968 81.3131 584.547 79.1663 583.38 77.4111C582.213 75.6558 580.397 74.4359 578.33 74.0197L328.085 20.1663C326.979 19.9311 325.836 19.9455 324.737 20.2086C323.638 20.4717 322.611 20.9768 321.733 21.687C320.854 22.3973 320.145 23.2948 319.657 24.314C319.169 25.3332 318.915 26.4484 318.913 27.5783V27.5672ZM318.913 75.9673C318.913 79.4396 316.687 82.5112 313.393 83.6018L200.229 121.018C200.082 121.084 199.963 121.202 199.896 121.349C199.828 121.496 199.816 121.663 199.863 121.818C199.909 121.973 200.01 122.106 200.147 122.192C200.284 122.278 200.448 122.312 200.608 122.286L316.81 91.5034C318.301 91.1028 319.87 91.0249 321.406 91.2697L574.802 131.301C577.017 131.677 579.291 131.159 581.124 129.861C582.958 128.563 584.201 126.59 584.581 124.376C584.962 122.162 584.448 119.888 583.153 118.052C581.858 116.216 579.887 114.969 577.674 114.585L328.441 68.0657C327.279 67.8484 326.084 67.8894 324.941 68.186C323.797 68.4825 322.732 69.0273 321.823 69.7815C320.914 70.5357 320.181 71.481 319.678 72.5501C319.176 73.6192 318.914 74.7859 318.913 75.9673ZM318.913 124.601C318.915 126.456 318.31 128.26 317.19 129.739C316.071 131.217 314.499 132.29 312.714 132.792L199.951 164.499C199.767 164.553 199.61 164.676 199.514 164.842C199.418 165.009 199.39 165.206 199.436 165.393C199.482 165.58 199.598 165.741 199.76 165.844C199.923 165.947 200.119 165.984 200.307 165.946L319.125 140.838V140.827L319.147 140.805C404.241 151.633 489.333 162.476 574.424 173.335C576.795 173.675 579.205 173.058 581.122 171.621C583.04 170.184 584.307 168.044 584.647 165.673C584.986 163.301 584.37 160.892 582.932 158.975C581.495 157.058 579.355 155.79 576.984 155.451L328.741 116.199C327.527 116.006 326.284 116.078 325.1 116.412C323.916 116.745 322.819 117.332 321.883 118.13C320.948 118.929 320.197 119.921 319.682 121.039C319.167 122.156 318.912 123.371 318.913 124.601Z" fill="url(#paint2_linear_308_995)"/>
<path d="M50 697.112V636.169H58.5704V663.257H61.7649L72.7617 636.169H81.3322L69.2 665.138L82.857 697.112H74.2866L61.8317 667.397H58.5704V697.112H50ZM88.5336 697.112V636.169H112.353V642.491H97.104V662.656H109.47V668.666H97.104V691.024H112.509V697.112H88.5336ZM119.276 697.112L120.411 636.169H128.837L139.689 685.604L150.608 636.169H158.956L160.091 697.112H153.19L152.511 652.874L142.115 697.112H137.251L126.934 652.874L126.266 697.112H119.276ZM169.519 697.112V636.169H193.338V642.491H178.089V662.656H190.455V668.666H178.089V691.024H193.494V697.112H169.519ZM200.417 697.112V636.169H215.665C219.361 636.169 222.288 636.848 224.458 638.206C226.685 639.508 228.31 641.411 229.322 643.926C230.324 646.43 230.836 649.468 230.836 653.03C230.836 656.235 230.257 659.017 229.089 661.376C227.976 663.736 226.306 665.572 224.08 666.874C221.854 668.121 219.071 668.755 215.732 668.755H208.987V697.112H200.417ZM208.987 662.656H212.927C215.409 662.656 217.357 662.378 218.771 661.833C219.445 661.587 220.061 661.206 220.584 660.714C221.106 660.223 221.523 659.63 221.809 658.973C222.41 657.57 222.722 655.612 222.722 653.096C222.722 650.203 222.499 647.955 222.032 646.408C221.877 645.699 221.557 645.036 221.096 644.475C220.636 643.914 220.048 643.47 219.383 643.181C218.014 642.568 215.888 642.268 213.005 642.268H208.987V662.656ZM252.574 697.791C248.422 697.791 245.117 696.989 242.634 695.387C240.145 693.767 238.275 691.356 237.325 688.542C236.203 685.145 235.664 681.581 235.734 678.003V654.911C235.734 650.904 236.257 647.454 237.325 644.605C238.438 641.689 240.208 639.486 242.634 637.983C245.117 636.425 248.422 635.646 252.574 635.646C256.726 635.646 260.009 636.425 262.435 637.983C264.862 639.541 266.609 641.745 267.667 644.605C268.78 647.465 269.336 650.893 269.336 654.911V678.081C269.336 682.043 268.78 685.504 267.667 688.465C266.718 691.277 264.882 693.706 262.435 695.387C260.009 696.989 256.726 697.791 252.574 697.791ZM252.574 691.102C254.845 691.102 256.57 690.646 257.727 689.744C258.928 688.737 259.758 687.359 260.087 685.827C260.488 684.124 260.688 682.154 260.688 679.884V653.174C260.688 650.915 260.488 648.99 260.087 647.387C259.781 645.889 258.943 644.553 257.727 643.626C256.57 642.724 254.845 642.268 252.574 642.268C250.292 642.268 248.556 642.713 247.343 643.626C246.128 644.554 245.29 645.89 244.983 647.387C244.548 649.285 244.347 651.228 244.382 653.174V679.884C244.382 682.143 244.582 684.124 244.983 685.827C245.313 687.358 246.143 688.737 247.343 689.744C248.556 690.646 250.292 691.102 252.574 691.102ZM277.762 697.112V636.169H291.875C294.658 636.169 297.062 636.47 299.088 637.071C301.158 637.683 302.872 638.606 304.241 639.853C305.61 641.111 306.623 642.724 307.28 644.672C307.948 646.586 308.271 648.834 308.271 651.449C308.271 653.953 307.937 656.135 307.28 657.993C306.758 659.672 305.755 661.161 304.397 662.278C302.974 663.4 301.267 664.105 299.466 664.315C301.949 664.871 303.941 665.817 305.455 667.175C306.979 668.477 308.093 670.18 308.794 672.294C309.562 674.342 309.94 676.824 309.94 679.739C309.94 682.344 309.64 684.725 309.027 686.884C308.415 689.043 307.469 690.868 306.134 692.371C304.801 693.927 303.113 695.141 301.214 695.91C298.961 696.761 296.565 697.17 294.157 697.112H277.762ZM286.333 691.024H292.109C295.949 691.024 298.509 690.134 299.767 688.387C301.08 686.584 301.737 683.701 301.737 679.739C301.737 677.18 301.392 675.043 300.68 673.34C300.102 671.686 298.943 670.297 297.418 669.434C295.949 668.521 293.957 668.076 291.43 668.076H286.344L286.333 691.024ZM286.333 661.599H291.419C293.857 661.599 295.749 661.276 297.118 660.631C298.473 659.942 299.507 658.752 300.001 657.314C300.557 655.812 300.835 653.864 300.835 651.449C300.835 648.634 300.401 646.608 299.544 645.351C299.075 644.702 298.475 644.159 297.783 643.757C297.091 643.354 296.322 643.101 295.526 643.014C293.169 642.621 290.781 642.446 288.392 642.491H286.344L286.333 661.599ZM333.27 697.791C329.118 697.791 325.801 696.989 323.319 695.387C320.83 693.767 318.959 691.356 318.01 688.542C316.887 685.145 316.349 681.581 316.418 678.003V654.911C316.418 650.904 316.952 647.454 318.01 644.605C319.123 641.689 320.904 639.486 323.319 637.983C325.801 636.425 329.107 635.646 333.258 635.646C337.41 635.646 340.694 636.425 343.12 637.983C345.558 639.541 347.294 641.745 348.351 644.605C349.464 647.465 350.021 650.893 350.021 654.911V678.081C350.021 682.043 349.464 685.504 348.351 688.465C347.401 691.277 345.566 693.705 343.12 695.387C340.694 696.989 337.41 697.791 333.258 697.791H333.27ZM333.27 691.102C335.54 691.102 337.254 690.646 338.423 689.744C339.619 688.736 340.445 687.357 340.771 685.827C341.183 684.124 341.384 682.154 341.384 679.884V653.174C341.384 650.915 341.183 648.99 340.771 647.387C340.469 645.891 339.634 644.555 338.423 643.626C337.254 642.724 335.529 642.268 333.258 642.268C330.988 642.268 329.24 642.713 328.027 643.626C326.816 644.556 325.982 645.891 325.679 647.387C325.241 649.284 325.035 651.228 325.066 653.174V679.884C325.066 682.143 325.267 684.124 325.679 685.827C326.002 687.356 326.825 688.733 328.016 689.744C329.24 690.646 330.988 691.102 333.258 691.102H333.27ZM358.458 697.112V636.169H382.199V642.491H367.028V697.112H358.458ZM387.497 697.112V636.169H402.746C406.441 636.169 409.38 636.848 411.55 638.206C413.776 639.508 415.401 641.411 416.414 643.926C417.416 646.43 417.928 649.468 417.928 653.03C417.928 656.235 417.349 659.017 416.18 661.376C415.067 663.736 413.398 665.572 411.172 666.874C408.945 668.121 406.163 668.755 402.824 668.755H396.079V697.112H387.497ZM396.067 662.656H400.019C402.501 662.656 404.449 662.378 405.862 661.833C406.536 661.587 407.153 661.206 407.675 660.714C408.197 660.223 408.614 659.63 408.901 658.973C409.502 657.57 409.814 655.612 409.814 653.096C409.814 650.203 409.58 647.955 409.123 646.408C408.969 645.699 408.648 645.036 408.188 644.475C407.727 643.914 407.14 643.47 406.474 643.181C405.105 642.568 402.979 642.268 400.097 642.268H396.079V662.656H396.067ZM417.204 697.112L430.26 636.169H438.53L451.664 697.112H443.539L440.734 681.765H428.212L425.251 697.123L417.204 697.112ZM429.348 675.677H439.587L434.434 648.211L429.348 675.677ZM453.411 697.112L467.681 665.973L454.858 636.169H463.128L474.659 665.594H475.105V636.169H482.395V665.594H482.929L494.394 636.169H502.742L489.83 665.973L504.177 697.112H495.752L483.007 666.641H482.395V697.112H475.116V666.641H474.582L461.759 697.112H453.411ZM505.224 708.174V691.035H508.029C510.136 689.291 511.799 687.071 512.881 684.558C513.765 682.522 514.451 680.405 514.929 678.237C515.542 675.633 516.065 672.372 516.521 668.466C517.033 664.548 517.411 659.807 517.667 654.243L518.647 636.18H544.369V691.035H550.291V708.174H543.69L543 697.112H512.503L511.824 708.174H505.224ZM515.998 691.024H535.877V642.502H525.937L525.325 656.257C525.125 661.677 524.791 666.24 524.335 669.946C524.033 673.014 523.527 676.059 522.821 679.06C522.264 681.42 521.608 683.345 520.851 684.848C520.138 686.306 519.359 687.485 518.502 688.387C517.69 689.288 516.855 690.167 515.998 691.024ZM553.396 697.112L566.441 636.169H574.711L587.845 697.112H579.72L576.915 681.765H564.393L561.432 697.123L553.396 697.112ZM565.528 675.677H575.768L570.615 648.211L565.528 675.677ZM594.078 697.112V636.169H602.648V662.512H618.431V636.169H627.002V697.112H618.431V668.599H602.648V697.112H594.078ZM652.012 697.791C647.66 697.791 644.265 696.9 641.839 695.086C639.437 693.246 637.682 690.689 636.83 687.786C635.885 684.456 635.427 681.008 635.472 677.547V656.035C635.472 651.917 635.917 648.333 636.841 645.273C637.798 642.223 639.468 639.864 641.85 638.206C644.276 636.503 647.66 635.646 652.012 635.646C655.852 635.646 658.89 636.347 661.117 637.761C663.387 639.163 665.012 641.166 665.969 643.77C666.982 646.386 667.483 649.513 667.483 653.174V657.993H659.369V653.709C659.369 651.449 659.247 649.468 658.991 647.755C658.89 646.225 658.242 644.783 657.165 643.692C656.163 642.746 654.461 642.268 652.09 642.268C649.663 642.268 647.882 642.791 646.781 643.848C645.667 644.85 644.933 646.297 644.577 648.211C644.276 650.069 644.12 652.251 644.12 654.755V678.905C644.12 681.965 644.376 684.402 644.877 686.205C645.222 687.724 646.113 689.063 647.382 689.967C648.809 690.79 650.444 691.184 652.09 691.102C654.416 691.102 656.086 690.59 657.098 689.589C658.17 688.398 658.833 686.897 658.991 685.304C659.247 683.501 659.369 681.386 659.369 678.983V674.464H667.494V678.983C667.494 682.7 667.038 685.983 666.125 688.843C665.213 691.647 663.643 693.851 661.417 695.465C659.191 697.023 656.052 697.791 652.012 697.791ZM682.409 697.112V642.491H672.013V636.169H701.064V642.491H690.979V697.112H682.409ZM706.406 697.112V636.169H721.655C725.35 636.169 728.278 636.848 730.448 638.206C732.674 639.508 734.299 641.411 735.312 643.926C736.314 646.43 736.826 649.468 736.826 653.03C736.826 656.235 736.247 659.017 735.089 661.376C733.976 663.736 732.307 665.572 730.081 666.874C727.855 668.121 725.072 668.755 721.733 668.755H714.977V697.112H706.406ZM714.977 662.656H718.928C721.399 662.656 723.347 662.378 724.771 661.833C725.443 661.585 726.058 661.204 726.578 660.713C727.098 660.221 727.514 659.629 727.799 658.973C728.411 657.57 728.712 655.612 728.712 653.096C728.712 650.203 728.489 647.955 728.033 646.408C727.877 645.698 727.555 645.034 727.092 644.473C726.63 643.912 726.04 643.469 725.373 643.181C724.003 642.568 721.889 642.268 718.995 642.268H714.988L714.977 662.656ZM758.563 697.791C754.423 697.791 751.106 696.989 748.624 695.387C746.135 693.767 744.264 691.356 743.315 688.542C742.192 685.145 741.654 681.581 741.723 678.003V654.911C741.723 650.904 742.257 647.454 743.315 644.605C744.428 641.689 746.198 639.486 748.624 637.983C751.106 636.425 754.412 635.646 758.563 635.646C762.715 635.646 765.999 636.425 768.425 637.983C770.851 639.541 772.599 641.745 773.656 644.605C774.769 647.465 775.326 650.893 775.326 654.911V678.081C775.326 682.043 774.769 685.504 773.656 688.465C772.707 691.277 770.871 693.705 768.425 695.387C765.999 696.989 762.715 697.791 758.563 697.791ZM758.563 691.102C760.845 691.102 762.57 690.646 763.728 689.744C764.924 688.735 765.75 687.357 766.077 685.827C766.477 684.124 766.689 682.154 766.689 679.884V653.174C766.689 650.915 766.477 648.99 766.077 647.387C765.773 645.891 764.939 644.556 763.728 643.626C762.559 642.724 760.834 642.268 758.563 642.268C756.293 642.268 754.545 642.713 753.332 643.626C752.117 644.553 751.278 645.889 750.973 647.387C750.538 649.285 750.336 651.228 750.371 653.174V679.884C750.371 682.143 750.572 684.124 750.973 685.827C751.302 687.359 752.132 688.737 753.332 689.744C754.545 690.646 756.293 691.102 758.563 691.102ZM783.763 697.112V636.169H791.343V678.382L809.329 636.169H815.473V697.112H807.96V654.232L790.129 697.112H783.763ZM800.381 631.439C796.73 631.439 794.148 630.46 792.634 628.501C791.117 626.377 790.346 623.81 790.441 621.201H795.138C795.194 623.004 795.594 624.406 796.362 625.419C797.164 626.365 798.5 626.843 800.369 626.843C802.295 626.843 803.642 626.342 804.399 625.341C805.268 624.142 805.697 622.679 805.612 621.201H810.398C810.398 624.105 809.63 626.543 808.116 628.501C806.647 630.46 804.065 631.439 800.381 631.439Z" fill="url(#paint3_linear_308_995)"/>
<path d="M209.388 554.516L157.832 484.514L174.272 474.353L232.529 554.516H209.388ZM113.789 554.516V412.476H133.679V554.527L113.789 554.516ZM127.591 492.015V474.153H173.671V492.015H127.58H127.591ZM176.097 485.727L157.432 482.878L208.376 412.465H230.08L176.097 485.727ZM387.498 557.42V415.358H480.659L480.448 433.009H402.513L407.388 427.945L407.588 557.42H387.475H387.498ZM707.375 557.42C696.211 557.42 685.882 555.662 676.388 552.156C667.336 548.697 659.026 543.545 651.901 536.976C645.079 530.398 639.598 522.56 635.762 513.895C631.866 505.114 629.907 495.465 629.907 484.937C629.907 474.409 631.855 464.76 635.773 455.99C639.598 447.33 645.155 439.543 652.101 433.109C659.156 426.449 667.485 421.286 676.588 417.929C686.094 414.279 696.423 412.465 707.587 412.465C718.895 412.465 729.291 414.357 738.785 418.141C748.132 421.592 756.528 427.21 763.283 434.534L749.671 447.288C744.363 441.8 737.936 437.519 730.827 434.734C723.706 431.872 716.095 430.428 708.421 430.483C700.185 430.483 692.505 431.829 685.393 434.534C678.639 437.088 672.45 440.937 667.172 445.863C661.975 450.775 657.845 456.703 655.04 463.28C652.196 470.143 650.769 477.509 650.844 484.937C650.844 492.772 652.235 500.061 655.029 506.806C657.876 513.3 662.007 519.152 667.172 524.011C672.337 528.874 678.414 532.647 685.393 535.352C692.516 538.056 700.196 539.403 708.433 539.403C716.084 539.456 723.679 538.082 730.827 535.352C737.955 532.417 744.378 528.001 749.671 522.397L763.283 535.151C756.503 542.496 748.12 548.178 738.785 551.756C729.291 555.54 718.828 557.42 707.375 557.42Z" fill="#2B2A29"/>
</g>
<defs>
<filter id="filter0_d_308_995" x="0" y="-1.82568" width="868" height="790" filterUnits="userSpaceOnUse" color-interpolation-filters="sRGB">
<feFlood flood-opacity="0" result="BackgroundImageFix"/>
<feColorMatrix in="SourceAlpha" type="matrix" values="0 0 0 0 0 0 0 0 0 0 0 0 0 0 0 0 0 0 127 0" result="hardAlpha"/>
<feOffset dy="30"/>
<feGaussianBlur stdDeviation="25"/>
<feComposite in2="hardAlpha" operator="out"/>
<feColorMatrix type="matrix" values="0 0 0 0 0 0 0 0 0 0 0 0 0 0 0 0 0 0 0.6 0"/>
<feBlend mode="normal" in2="BackgroundImageFix" result="effect1_dropShadow_308_995"/>
<feBlend mode="normal" in="SourceGraphic" in2="effect1_dropShadow_308_995" result="shape"/>
</filter>
<linearGradient id="paint0_linear_308_995" x1="301.126" y1="456.63" x2="301.126" y2="566.819" gradientUnits="userSpaceOnUse">
<stop stop-color="#F4E17F"/>
<stop offset="0.28" stop-color="#DFC25F"/>
<stop offset="0.88" stop-color="#AD7511"/>
<stop offset="1" stop-color="#A26500"/>
</linearGradient>
<linearGradient id="paint1_linear_308_995" x1="699.572" y1="456.592" x2="699.572" y2="566.735" gradientUnits="userSpaceOnUse">
<stop stop-color="#F4E17F"/>
<stop offset="0.28" stop-color="#DFC25F"/>
<stop offset="0.88" stop-color="#AD7511"/>
<stop offset="1" stop-color="#A26500"/>
</linearGradient>
<linearGradient id="paint2_linear_308_995" x1="432.838" y1="-18.5886" x2="432.838" y2="389.555" gradientUnits="userSpaceOnUse">
<stop stop-color="#E7BC48"/>
<stop offset="0.15" stop-color="#A26500"/>
<stop offset="0.28" stop-color="#EAC667"/>
<stop offset="0.44" stop-color="#FFF3BB"/>
<stop offset="0.55" stop-color="#A26500"/>
<stop offset="1" stop-color="#FEE88E"/>
</linearGradient>
<linearGradient id="paint3_linear_308_995" x1="432.731" y1="610.806" x2="432.731" y2="720.745" gradientUnits="userSpaceOnUse">
<stop stop-color="#E7BC48"/>
<stop offset="0.15" stop-color="#A26500"/>
<stop offset="0.28" stop-color="#EAC667"/>
<stop offset="0.44" stop-color="#FFF3BB"/>
<stop offset="0.55" stop-color="#A26500"/>
<stop offset="1" stop-color="#FEE88E"/>
</linearGradient>
</defs>
</svg>
