<svg width="946" height="1245" viewBox="0 0 946 1245" fill="none" xmlns="http://www.w3.org/2000/svg">
<g filter="url(#filter0_d_308_1001)">
<path fill-rule="evenodd" clip-rule="evenodd" d="M139.121 1147H119.4C118.403 1143.89 117.517 1141.23 116.727 1139C115.936 1136.78 114.782 1134.22 113.222 1131.29C111.381 1127.74 109.353 1125.17 107.203 1123.57C105.052 1121.98 102.193 1121.19 98.6889 1121.19H97.5551V1136.98C97.5551 1138.28 97.8162 1139.33 98.3453 1140.17C98.8951 1141 99.7059 1141.66 100.819 1142.1C101.651 1142.49 102.544 1142.74 103.451 1142.9C104.385 1143.06 105.375 1143.18 106.392 1143.25V1147H78.3218V1143.25C79.2357 1143.18 80.1496 1143.11 81.0773 1143.08C82.0118 1143.04 82.8227 1142.91 83.551 1142.67C84.6436 1142.34 85.4544 1141.74 85.9835 1140.89C86.492 1140.03 86.7531 1138.93 86.7531 1137.57V1121.19H85.6193C81.9294 1121.19 79.0502 1121.97 76.9475 1123.56C74.8586 1125.14 72.8521 1127.71 70.9487 1131.31C69.5332 1133.97 68.4131 1136.41 67.6023 1138.64C66.7915 1140.89 65.8363 1143.66 64.785 1147H45.1875V1143.26C45.854 1143.18 46.7267 1143.07 47.7643 1142.95C48.8156 1142.81 49.7296 1142.66 50.4785 1142.52C51.8941 1142.25 53.0141 1141.79 53.8043 1141.13C54.5946 1140.47 55.3848 1139.34 56.175 1137.79C56.5598 1136.92 57.1301 1135.71 57.8379 1134.18C58.5457 1132.65 59.3771 1130.98 60.3323 1129.16C61.789 1126.36 63.5138 1124.05 65.4996 1122.29C67.4855 1120.5 70.2409 1119.24 73.8073 1118.52V1117.78C71.6771 1116.51 70.0142 1114.8 68.8392 1112.7C67.6848 1110.6 66.7296 1108.53 66.0219 1106.47C65.4309 1104.68 64.8262 1102.82 64.1803 1100.88C63.555 1098.92 62.8404 1097.62 62.0501 1096.98C60.0643 1099.25 58.5663 1100.78 57.5287 1101.58C56.5186 1102.37 55.1993 1102.78 53.6188 1102.78C51.7566 1102.78 50.2518 1102.21 49.1386 1101.09C48.0048 1099.98 47.4345 1098.61 47.4345 1096.97C47.4345 1095.03 48.1216 1093.44 49.4822 1092.16C50.8633 1090.9 53.1103 1090.26 56.23 1090.26C58.5182 1090.26 60.4078 1090.55 61.9058 1091.11C63.3832 1091.67 65.0255 1092.95 66.8533 1094.92C67.8497 1096.02 68.6811 1097.4 69.3477 1099.05C70.0348 1100.7 70.6876 1102.49 71.3129 1104.43C71.9038 1106.23 72.591 1108.06 73.3606 1109.84C74.1302 1111.65 75.0441 1113.08 76.0542 1114.15C77.0094 1115.08 78.0813 1115.8 79.277 1116.25C80.452 1116.69 81.7919 1116.93 83.2487 1116.93H86.7531V1100.96C86.7531 1099.69 86.492 1098.65 85.9423 1097.8C85.4132 1096.94 84.5817 1096.3 83.4892 1095.84C82.4585 1095.39 81.4621 1095.1 80.507 1094.99C79.5518 1094.87 78.6791 1094.79 77.8889 1094.71V1090.95H105.98V1094.71C104.743 1094.79 103.767 1094.85 102.997 1094.9C102.248 1094.96 101.499 1095.07 100.75 1095.27C99.6372 1095.58 98.8263 1096.17 98.3179 1097.06C97.8094 1097.95 97.5482 1099.06 97.5482 1100.4V1116.93H101.053C102.351 1116.93 103.671 1116.68 104.963 1116.2C106.282 1115.71 107.354 1115.04 108.227 1114.16C109.34 1113.01 110.274 1111.52 111.044 1109.66C111.834 1107.79 112.459 1106.07 112.988 1104.43C113.579 1102.57 114.225 1100.81 114.912 1099.12C115.6 1097.42 116.452 1096.03 117.427 1094.92C119.132 1093.08 120.794 1091.84 122.416 1091.22C124.058 1090.58 125.921 1090.27 128.071 1090.27C131.109 1090.27 133.342 1090.91 134.737 1092.21C136.152 1093.49 136.846 1095.08 136.846 1096.98C136.846 1098.65 136.276 1100.03 135.122 1101.14C133.988 1102.22 132.504 1102.78 130.683 1102.78C128.978 1102.78 127.604 1102.34 126.546 1101.47C125.495 1100.59 124.072 1099.09 122.251 1096.98C121.379 1097.62 120.63 1098.94 119.984 1100.92C119.358 1102.92 118.788 1104.74 118.259 1106.41C117.51 1108.76 116.514 1110.95 115.256 1112.99C114.019 1115.01 112.418 1116.62 110.494 1117.78V1118.52C114.081 1119.2 116.898 1120.46 118.884 1122.29C120.891 1124.09 122.615 1126.38 124.093 1129.16C124.801 1130.48 125.591 1132.11 126.484 1134.03C127.377 1135.93 127.961 1137.19 128.25 1137.79C128.841 1139.09 129.59 1140.14 130.518 1140.94C131.452 1141.74 132.545 1142.24 133.823 1142.47C134.819 1142.65 135.788 1142.82 136.743 1142.98C137.678 1143.13 138.468 1143.23 139.114 1143.26V1147.01L139.121 1147ZM210.33 1147H181.868V1143.25C182.782 1143.18 183.73 1143.09 184.706 1143.02C185.661 1142.94 186.513 1142.78 187.221 1142.55C188.334 1142.22 189.186 1141.62 189.777 1140.76C190.368 1139.91 190.671 1138.8 190.671 1137.44V1107.99L163.714 1135.91V1136.88C163.714 1138.16 163.996 1139.23 164.545 1140.06C165.095 1140.89 165.926 1141.54 167.04 1141.99C167.912 1142.37 168.826 1142.65 169.795 1142.84C170.771 1143.03 171.781 1143.17 172.853 1143.24V1146.99H144.412V1143.24C145.326 1143.17 146.253 1143.09 147.229 1143.01C148.205 1142.93 149.036 1142.78 149.744 1142.54C150.857 1142.21 151.689 1141.61 152.218 1140.76C152.747 1139.9 153.029 1138.8 153.029 1137.44V1101.05C153.029 1099.79 152.747 1098.74 152.197 1097.89C151.627 1097.04 150.795 1096.4 149.703 1095.93C148.672 1095.49 147.655 1095.18 146.7 1095.02C145.724 1094.86 144.817 1094.77 143.986 1094.69V1090.92H172.447V1094.69C171.293 1094.77 170.297 1094.85 169.445 1094.96C168.593 1095.08 167.802 1095.22 167.095 1095.37C165.981 1095.66 165.171 1096.26 164.621 1097.16C164.092 1098.05 163.831 1099.16 163.831 1100.5V1129.49L190.787 1101.51C190.787 1099.84 190.506 1098.61 189.956 1097.82C189.406 1097.02 188.575 1096.4 187.462 1095.93C186.431 1095.49 185.414 1095.18 184.404 1095.02C183.394 1094.86 182.48 1094.77 181.648 1094.69V1090.92H210.089V1094.69C208.935 1094.77 207.939 1094.85 207.087 1094.96C206.235 1095.08 205.465 1095.22 204.737 1095.37C203.644 1095.66 202.813 1096.26 202.283 1097.16C201.734 1098.05 201.473 1099.16 201.473 1100.5V1136.88C201.473 1138.2 201.713 1139.27 202.18 1140.08C202.668 1140.9 203.479 1141.54 204.634 1141.99C205.465 1142.37 206.358 1142.65 207.327 1142.84C208.303 1143.03 209.292 1143.17 210.33 1143.24V1146.99V1147ZM280.983 1147H252.363V1143.25C253.277 1143.18 254.204 1143.09 255.16 1143.02C256.115 1142.94 256.946 1142.78 257.654 1142.55C258.767 1142.22 259.619 1141.62 260.21 1140.76C260.801 1139.91 261.103 1138.8 261.103 1137.44V1095.6H244.825C244.825 1104.84 244.158 1112.8 242.798 1119.48C241.458 1126.15 239.719 1131.58 237.589 1135.8C235.48 1139.93 233.109 1143.02 230.457 1145.05C227.804 1147.11 225.083 1148.14 222.328 1148.14C219.572 1148.14 217.318 1147.42 215.841 1146C214.384 1144.56 213.649 1142.91 213.649 1141.01C213.649 1139.65 214.116 1138.37 215.051 1137.15C215.985 1135.95 217.339 1135.33 219.126 1135.33C220.788 1135.33 222.286 1135.8 223.626 1136.71C224.987 1137.62 226.279 1138.88 227.557 1140.52C228.491 1139.68 229.625 1138.13 230.903 1135.88C232.202 1133.62 233.377 1130.83 234.428 1127.49C235.624 1123.91 236.6 1120.16 237.349 1116.3C238.098 1112.44 238.482 1107.99 238.482 1102.99C238.482 1101.03 238.221 1099.58 237.713 1098.63C237.184 1097.68 236.373 1096.94 235.26 1096.41C234.511 1096.03 233.294 1095.68 231.59 1095.35C229.886 1095.04 228.491 1094.83 227.433 1094.71V1090.95H280.763V1094.71C279.608 1094.79 278.612 1094.87 277.76 1094.99C276.908 1095.1 276.118 1095.24 275.41 1095.39C274.297 1095.68 273.486 1096.28 272.936 1097.18C272.407 1098.07 272.146 1099.18 272.146 1100.52V1136.9C272.146 1138.22 272.366 1139.29 272.854 1140.1C273.321 1140.92 274.132 1141.56 275.286 1142.01C276.118 1142.39 277.011 1142.67 277.98 1142.86C278.956 1143.05 279.945 1143.19 280.983 1143.26V1147.01V1147ZM346.475 1118.4C346.475 1122.33 345.829 1126.22 344.53 1130.02C343.211 1133.84 341.349 1137.07 338.937 1139.73C336.223 1142.76 333.041 1145 329.454 1146.5C325.847 1147.98 321.813 1148.71 317.333 1148.71C313.602 1148.71 310.056 1148.03 306.689 1146.69C303.322 1145.35 300.346 1143.37 297.728 1140.81C295.152 1138.27 293.104 1135.16 291.585 1131.51C290.067 1127.84 289.297 1123.75 289.297 1119.19C289.297 1110.44 291.95 1103.28 297.282 1097.71C302.614 1092.14 309.589 1089.35 318.219 1089.35C326.41 1089.35 333.178 1092.01 338.49 1097.29C343.822 1102.56 346.475 1109.61 346.475 1118.4V1118.4ZM334.195 1118.51C334.195 1115.68 333.893 1112.67 333.302 1109.51C332.711 1106.35 331.825 1103.67 330.629 1101.46C329.372 1099.11 327.709 1097.23 325.64 1095.81C323.572 1094.39 321.057 1093.67 318.102 1093.67C315.148 1093.67 312.447 1094.39 310.296 1095.82C308.125 1097.26 306.387 1099.24 305.026 1101.74C303.768 1104.05 302.875 1106.69 302.374 1109.64C301.844 1112.6 301.604 1115.46 301.604 1118.23C301.604 1121.86 301.906 1125.22 302.518 1128.33C303.129 1131.41 304.119 1134.17 305.459 1136.59C306.799 1139.02 308.496 1140.92 310.523 1142.3C312.571 1143.69 315.106 1144.37 318.102 1144.37C323.05 1144.37 326.96 1142.08 329.86 1137.5C332.759 1132.9 334.195 1126.57 334.195 1118.5V1118.51ZM421.01 1147H392.548V1143.25C393.462 1143.18 394.41 1143.09 395.386 1143.02C396.341 1142.94 397.193 1142.78 397.901 1142.55C399.014 1142.22 399.866 1141.62 400.457 1140.76C401.048 1139.91 401.35 1138.8 401.35 1137.44V1107.99L374.394 1135.91V1136.88C374.394 1138.16 374.675 1139.23 375.225 1140.06C375.775 1140.89 376.606 1141.54 377.719 1141.99C378.592 1142.37 379.506 1142.65 380.475 1142.84C381.451 1143.03 382.461 1143.17 383.533 1143.24V1146.99H355.092V1143.24C356.006 1143.17 356.933 1143.09 357.909 1143.01C358.885 1142.93 359.716 1142.78 360.424 1142.54C361.537 1142.21 362.369 1141.61 362.898 1140.76C363.427 1139.9 363.708 1138.8 363.708 1137.44V1101.05C363.708 1099.79 363.427 1098.74 362.877 1097.89C362.307 1097.04 361.475 1096.4 360.383 1095.93C359.352 1095.49 358.335 1095.18 357.38 1095.02C356.404 1094.86 355.497 1094.77 354.666 1094.69V1090.92H383.12V1094.69C381.966 1094.77 380.97 1094.85 380.118 1094.96C379.266 1095.08 378.475 1095.22 377.768 1095.37C376.654 1095.66 375.844 1096.26 375.294 1097.16C374.765 1098.05 374.504 1099.16 374.504 1100.5V1129.49L401.46 1101.51C401.46 1099.84 401.179 1098.61 400.629 1097.82C400.079 1097.02 399.248 1096.4 398.135 1095.93C397.104 1095.49 396.087 1095.18 395.077 1095.02C394.067 1094.86 393.153 1094.77 392.321 1094.69V1090.92H420.762V1094.69C419.608 1094.77 418.612 1094.85 417.76 1094.96C416.908 1095.08 416.138 1095.22 415.41 1095.37C414.317 1095.66 413.486 1096.26 412.956 1097.16C412.407 1098.05 412.146 1099.16 412.146 1100.5V1136.88C412.146 1138.2 412.386 1139.27 412.853 1140.08C413.341 1140.9 414.152 1141.54 415.306 1141.99C416.138 1142.37 417.031 1142.65 418 1142.84C418.976 1143.03 419.965 1143.17 421.003 1143.24V1146.99L421.01 1147ZM407.933 1067.92C407.933 1069.08 407.569 1070.5 406.841 1072.13C406.112 1073.76 405.034 1075.17 403.597 1076.38C401.935 1077.79 399.928 1078.92 397.578 1079.79C395.228 1080.67 392.026 1081.09 387.992 1081.09C384.179 1081.09 381.038 1080.67 378.544 1079.77C376.05 1078.88 374.002 1077.75 372.422 1076.38C370.924 1075.06 369.845 1073.62 369.199 1072.09C368.532 1070.56 368.202 1069.16 368.202 1067.92C368.202 1066.1 368.773 1064.6 369.907 1063.45C371.02 1062.29 372.38 1061.71 373.961 1061.71C375.438 1061.71 376.799 1062.13 378.077 1062.97C379.334 1063.8 379.96 1065.16 379.96 1067.07C379.96 1068.15 379.74 1069.38 379.252 1070.74C378.785 1072.08 378.4 1073.04 378.139 1073.66C379.19 1074.91 380.612 1075.83 382.371 1076.44C384.137 1077.06 386 1077.35 387.985 1077.35C389.731 1077.35 391.572 1077.06 393.496 1076.48C395.441 1075.88 396.939 1074.95 398.018 1073.67C397.695 1072.96 397.31 1071.9 396.863 1070.56C396.396 1069.22 396.176 1068.06 396.176 1067.07C396.176 1065.17 396.802 1063.82 398.08 1062.98C399.337 1062.15 400.698 1061.71 402.113 1061.71C403.735 1061.71 405.116 1062.3 406.25 1063.46C407.363 1064.61 407.933 1066.1 407.933 1067.93V1067.92ZM520.873 1147H500.747C499.75 1143.89 498.864 1141.23 498.074 1139C497.283 1136.78 496.129 1134.22 494.59 1131.29C492.728 1127.74 490.68 1125.17 488.426 1123.57C486.2 1121.98 483.32 1121.19 479.789 1121.19H478.428V1136.89C478.428 1138.17 478.689 1139.24 479.259 1140.07C479.809 1140.9 480.641 1141.55 481.754 1141.99C482.585 1142.38 483.479 1142.65 484.447 1142.85C485.423 1143.04 486.413 1143.18 487.45 1143.25V1147H458.892V1143.25C459.806 1143.18 460.734 1143.09 461.71 1143.02C462.685 1142.94 463.517 1142.78 464.225 1142.55C465.338 1142.22 466.169 1141.62 466.698 1140.76C467.227 1139.91 467.509 1138.8 467.509 1137.44V1101.06C467.509 1099.8 467.227 1098.75 466.678 1097.9C466.107 1097.05 465.276 1096.41 464.183 1095.94C463.153 1095.49 462.136 1095.18 461.181 1095.03C460.205 1094.87 459.298 1094.77 458.466 1094.7V1090.93H487.024V1094.7C485.89 1094.77 484.894 1094.85 484.042 1094.97C483.19 1095.09 482.4 1095.23 481.692 1095.38C480.579 1095.67 479.768 1096.27 479.218 1097.16C478.689 1098.06 478.428 1099.16 478.428 1100.5V1116.92H482.159C483.479 1116.92 484.777 1116.66 486.09 1116.18C487.388 1115.7 488.481 1115.02 489.354 1114.14C490.446 1113 491.443 1111.5 492.315 1109.64C493.188 1107.78 493.916 1106.06 494.528 1104.42C495.153 1102.71 495.888 1100.94 496.699 1099.12C497.51 1097.3 498.321 1095.9 499.152 1094.91C500.609 1093.22 502.19 1092.02 503.873 1091.3C505.557 1090.6 507.398 1090.26 509.425 1090.26C512.462 1090.26 514.716 1090.88 516.132 1092.14C517.547 1093.38 518.262 1094.95 518.262 1096.85C518.262 1098.48 517.712 1099.88 516.578 1101.07C515.445 1102.23 513.96 1102.83 512.098 1102.83C510.236 1102.83 508.917 1102.39 507.9 1101.51C506.89 1100.64 505.509 1099.18 503.722 1097.15C502.973 1097.79 502.245 1099.15 501.551 1101.2C500.863 1103.28 500.19 1105.09 499.565 1106.64C498.369 1109.7 497.153 1112.07 495.895 1113.74C494.658 1115.41 493.202 1116.75 491.539 1117.78V1118.51C495.146 1119.19 498.005 1120.45 500.114 1122.28C502.245 1124.09 504.024 1126.37 505.509 1129.15C506.216 1130.47 507.007 1132.1 507.9 1134.02C508.793 1135.93 509.377 1137.18 509.666 1137.79C510.456 1139.5 511.411 1140.66 512.504 1141.3C513.617 1141.92 514.654 1142.31 515.603 1142.46C516.517 1142.63 517.424 1142.81 518.358 1142.95C519.293 1143.07 520.124 1143.18 520.873 1143.26V1147V1147ZM568.163 1130.5C568.163 1127.19 566.864 1124.55 564.294 1122.61C561.717 1120.68 558.048 1119.72 553.245 1119.72C551.156 1119.72 549.493 1119.76 548.297 1119.83C547.081 1119.91 546.147 1119.93 545.48 1119.93V1138.48C545.48 1139.96 546.126 1141.1 547.425 1141.92C548.744 1142.74 550.73 1143.14 553.423 1143.14C556.282 1143.14 558.694 1142.77 560.68 1142.06C562.645 1141.34 564.184 1140.34 565.304 1139.11C566.376 1137.88 567.125 1136.56 567.531 1135.13C567.957 1133.67 568.156 1132.14 568.156 1130.51L568.163 1130.5ZM580.037 1131.36C580.037 1134.13 579.391 1136.52 578.071 1138.52C576.773 1140.54 574.972 1142.19 572.657 1143.46C570.568 1144.65 568.176 1145.52 565.483 1146.12C562.789 1146.71 559.931 1147 556.866 1147H525.937V1143.25C526.851 1143.18 527.779 1143.09 528.755 1143.02C529.73 1142.94 530.562 1142.78 531.27 1142.55C532.383 1142.22 533.214 1141.62 533.743 1140.76C534.273 1139.91 534.554 1138.8 534.554 1137.44V1101.06C534.554 1099.8 534.273 1098.75 533.723 1097.9C533.153 1097.05 532.321 1096.41 531.229 1095.94C530.198 1095.49 529.181 1095.18 528.226 1095.03C527.25 1094.87 526.343 1094.77 525.511 1094.7V1090.93C529.037 1090.93 533.393 1090.91 538.608 1090.88C543.817 1090.83 549.252 1090.82 554.908 1090.82C557.931 1090.82 560.728 1091.03 563.318 1091.43C565.916 1091.83 568.225 1092.49 570.231 1093.45C572.341 1094.44 573.962 1095.78 575.117 1097.47C576.25 1099.16 576.841 1101.19 576.841 1103.58C576.841 1107.33 575.605 1110.3 573.172 1112.47C570.74 1114.66 567.558 1116.14 563.586 1116.93V1117.55C565.613 1117.83 567.599 1118.27 569.565 1118.87C571.509 1119.48 573.275 1120.31 574.814 1121.37C576.395 1122.46 577.673 1123.82 578.607 1125.43C579.563 1127.03 580.044 1129.01 580.044 1131.36L580.037 1131.36ZM565.064 1104.01C565.064 1102.11 564.7 1100.58 563.971 1099.38C563.243 1098.19 562.267 1097.26 561.03 1096.56C559.814 1095.88 558.433 1095.41 556.914 1095.18C555.375 1094.93 553.815 1094.81 552.193 1094.81C551.163 1094.81 550.022 1094.83 548.765 1094.89C547.528 1094.94 546.435 1094.99 545.48 1095.03V1115.5H551.238C553.973 1115.5 556.268 1115.19 558.13 1114.58C559.972 1113.98 561.394 1113.17 562.349 1112.14C563.346 1111.15 564.033 1109.99 564.459 1108.6C564.864 1107.24 565.064 1105.71 565.064 1104.01V1104.01ZM644.271 1145.97C642.409 1146.61 640.788 1147.13 639.386 1147.55C637.97 1147.93 636.383 1148.15 634.603 1148.15C631.504 1148.15 629.051 1147.45 627.203 1146.07C625.361 1144.68 624.179 1142.66 623.677 1140.02H623.313C620.737 1142.74 617.981 1144.83 615.026 1146.27C612.085 1147.7 608.54 1148.42 604.382 1148.42C599.985 1148.42 596.357 1147.14 593.539 1144.56C590.701 1141.97 589.286 1138.6 589.286 1134.45C589.286 1132.28 589.609 1130.35 590.241 1128.65C590.887 1126.94 591.821 1125.41 593.099 1124.03C594.096 1122.9 595.388 1121.89 597.009 1121C598.631 1120.11 600.17 1119.39 601.593 1118.86C603.379 1118.22 606.987 1117.02 612.415 1115.28C617.864 1113.53 621.534 1112.17 623.444 1111.18V1105.55C623.444 1105.07 623.341 1104.12 623.121 1102.72C622.901 1101.33 622.434 1099.99 621.719 1098.74C620.929 1097.33 619.816 1096.11 618.352 1095.07C616.916 1094.02 614.868 1093.5 612.209 1093.5C610.388 1093.5 608.705 1093.79 607.145 1094.39C605.585 1094.98 604.472 1095.6 603.84 1096.24C603.84 1096.99 604.025 1098.1 604.41 1099.6C604.795 1101.07 604.98 1102.43 604.98 1103.69C604.98 1104.96 604.355 1106.21 603.118 1107.32C601.861 1108.43 600.136 1108.97 597.909 1108.97C595.944 1108.97 594.481 1108.29 593.553 1106.95C592.618 1105.61 592.151 1104.1 592.151 1102.43C592.151 1100.76 592.797 1099.01 594.075 1097.42C595.374 1095.82 597.037 1094.41 599.105 1093.17C600.892 1092.11 603.036 1091.21 605.571 1090.46C608.107 1089.72 610.581 1089.35 612.992 1089.35C616.318 1089.35 619.218 1089.58 621.705 1090.01C624.179 1090.44 626.405 1091.39 628.433 1092.82C630.46 1094.22 631.978 1096.12 633.036 1098.52C634.088 1100.93 634.617 1104.04 634.617 1107.82C634.617 1113.26 634.555 1118.05 634.431 1122.24C634.308 1126.43 634.246 1131.01 634.246 1135.97C634.246 1137.45 634.507 1138.61 635.057 1139.49C635.586 1140.36 636.417 1141.09 637.51 1141.72C638.115 1142.05 639.049 1142.24 640.327 1142.28C641.626 1142.32 642.938 1142.34 644.278 1142.34V1145.96L644.271 1145.97ZM623.561 1115.95C620.194 1116.9 617.239 1117.83 614.703 1118.75C612.168 1119.66 609.818 1120.79 607.646 1122.16C605.66 1123.44 604.101 1124.97 602.946 1126.74C601.812 1128.48 601.221 1130.58 601.221 1133.01C601.221 1136.15 602.094 1138.48 603.819 1139.95C605.544 1141.43 607.729 1142.17 610.367 1142.17C613.185 1142.17 615.659 1141.51 617.809 1140.21C619.939 1138.91 621.74 1137.35 623.203 1135.57L623.568 1115.95H623.561ZM703.6 1097.59C705.929 1100.25 707.736 1103.33 709.035 1106.83C710.313 1110.34 710.959 1114.34 710.959 1118.86C710.959 1123.38 710.19 1127.34 708.65 1130.99C707.091 1134.65 705.063 1137.76 702.528 1140.34C699.875 1142.96 696.914 1144.98 693.67 1146.37C690.427 1147.77 686.985 1148.47 683.356 1148.47C679.728 1148.47 676.932 1148.1 674.678 1147.34C672.431 1146.58 670.582 1145.69 669.146 1144.66H668.679V1161.48C668.679 1162.84 668.961 1163.98 669.51 1164.9C670.06 1165.81 670.912 1166.47 672.067 1166.87C673.022 1167.23 674.375 1167.56 676.141 1167.89C677.907 1168.19 679.343 1168.39 680.498 1168.41V1172.23H647.783V1168.41C648.999 1168.35 650.195 1168.25 651.328 1168.13C652.483 1168.02 653.52 1167.82 654.427 1167.57C655.602 1167.18 656.434 1166.52 656.922 1165.57C657.389 1164.62 657.63 1163.51 657.63 1162.21V1102.58C657.63 1101.43 657.327 1100.35 656.736 1099.28C656.145 1098.21 655.376 1097.36 654.427 1096.72C653.72 1096.27 652.723 1095.92 651.445 1095.67C650.188 1095.42 648.951 1095.27 647.776 1095.18V1091.49L667.724 1090.23L668.555 1090.91V1097.24L669.043 1097.34C671.091 1095.07 673.647 1093.19 676.684 1091.65C679.742 1090.14 682.765 1089.39 685.782 1089.39C689.41 1089.39 692.757 1090.12 695.773 1091.6C698.81 1093.09 701.408 1095.07 703.6 1097.58V1097.59ZM693.911 1137.9C695.491 1135.55 696.667 1132.83 697.416 1129.71C698.164 1126.6 698.549 1123.14 698.549 1119.3C698.549 1116.51 698.226 1113.63 697.594 1110.73C696.948 1107.8 695.972 1105.27 694.612 1103.1C693.272 1100.91 691.513 1099.12 689.321 1097.76C687.149 1096.4 684.538 1095.71 681.494 1095.71C678.45 1095.71 676.059 1096.33 674.018 1097.57C671.95 1098.79 670.17 1100.27 668.665 1101.97V1135.11C669.029 1136.12 669.6 1137.19 670.411 1138.3C671.221 1139.38 672.135 1140.34 673.125 1141.13C674.341 1142.08 675.681 1142.85 677.096 1143.44C678.512 1144.02 680.257 1144.31 682.326 1144.31C684.538 1144.31 686.682 1143.75 688.73 1142.64C690.798 1141.51 692.523 1139.94 693.897 1137.88L693.911 1137.9ZM771.243 1108.91H767.615C767.25 1107.84 766.742 1106.6 766.034 1105.16C765.347 1103.73 764.598 1102.35 763.767 1101.07C762.894 1099.67 761.904 1098.43 760.826 1097.34C759.733 1096.26 758.599 1095.65 757.397 1095.5C756.18 1095.38 754.799 1095.29 753.301 1095.25C751.803 1095.19 750.505 1095.15 749.453 1095.15V1136.89C749.453 1138.17 749.714 1139.24 750.285 1140.08C750.834 1140.91 751.666 1141.55 752.779 1142C753.652 1142.38 754.621 1142.66 755.741 1142.85C756.854 1143.04 757.953 1143.18 759.005 1143.26V1147H729.21V1143.26C730.103 1143.18 731.154 1143.1 732.309 1143.02C733.484 1142.95 734.418 1142.79 735.147 1142.56C736.239 1142.23 737.071 1141.62 737.6 1140.77C738.129 1139.92 738.411 1138.81 738.411 1137.45V1095.15C737.133 1095.19 735.717 1095.25 734.137 1095.29C732.556 1095.34 731.299 1095.43 730.385 1095.5C729.354 1095.58 728.255 1096.2 727.1 1097.36C725.925 1098.54 724.908 1099.77 724.043 1101.07C723.211 1102.34 722.441 1103.78 721.713 1105.35C721.005 1106.93 720.517 1108.11 720.236 1108.91H716.608V1090.94H771.256V1108.91H771.243ZM832.268 1145.97C830.406 1146.61 828.785 1147.13 827.383 1147.55C825.96 1147.93 824.38 1148.15 822.6 1148.15C819.501 1148.15 817.048 1147.45 815.2 1146.07C813.358 1144.68 812.183 1142.66 811.675 1140.02H811.31C808.734 1142.74 805.978 1144.83 803.023 1146.27C800.082 1147.7 796.537 1148.42 792.379 1148.42C787.982 1148.42 784.354 1147.14 781.536 1144.56C778.698 1141.97 777.283 1138.6 777.283 1134.45C777.283 1132.28 777.606 1130.35 778.238 1128.65C778.884 1126.94 779.818 1125.41 781.096 1124.03C782.093 1122.9 783.385 1121.89 785.006 1121C786.628 1120.11 788.167 1119.39 789.59 1118.86C791.376 1118.22 794.984 1117.02 800.412 1115.28C805.861 1113.53 809.531 1112.17 811.441 1111.18V1105.55C811.441 1105.07 811.338 1104.12 811.118 1102.72C810.898 1101.33 810.431 1099.99 809.716 1098.74C808.926 1097.33 807.813 1096.11 806.349 1095.07C804.913 1094.02 802.865 1093.5 800.206 1093.5C798.385 1093.5 796.702 1093.79 795.142 1094.39C793.582 1094.98 792.469 1095.6 791.837 1096.24C791.837 1096.99 792.022 1098.1 792.407 1099.6C792.792 1101.07 792.977 1102.43 792.977 1103.69C792.977 1104.96 792.352 1106.21 791.115 1107.32C789.858 1108.43 788.133 1108.97 785.906 1108.97C783.941 1108.97 782.478 1108.29 781.55 1106.95C780.615 1105.61 780.148 1104.1 780.148 1102.43C780.148 1100.76 780.794 1099.01 782.072 1097.42C783.371 1095.82 785.034 1094.41 787.102 1093.17C788.889 1092.11 791.033 1091.21 793.568 1090.46C796.104 1089.72 798.578 1089.35 800.989 1089.35C804.315 1089.35 807.215 1089.58 809.702 1090.01C812.176 1090.44 814.403 1091.39 816.43 1092.82C818.457 1094.22 819.975 1096.12 821.034 1098.52C822.085 1100.93 822.614 1104.04 822.614 1107.82C822.614 1113.26 822.552 1118.05 822.428 1122.24C822.305 1126.43 822.243 1131.01 822.243 1135.97C822.243 1137.45 822.504 1138.61 823.054 1139.49C823.583 1140.36 824.414 1141.09 825.507 1141.72C826.118 1142.05 827.046 1142.24 828.324 1142.28C829.623 1142.32 830.942 1142.34 832.275 1142.34V1145.96L832.268 1145.97ZM811.558 1115.95C808.191 1116.9 805.236 1117.83 802.7 1118.75C800.165 1119.66 797.815 1120.79 795.643 1122.16C793.658 1123.44 792.098 1124.97 790.943 1126.74C789.81 1128.48 789.219 1130.58 789.219 1133.01C789.219 1136.15 790.091 1138.48 791.816 1139.95C793.541 1141.43 795.726 1142.17 798.365 1142.17C801.182 1142.17 803.656 1141.51 805.806 1140.21C807.937 1138.91 809.737 1137.35 811.2 1135.57L811.565 1115.95H811.558ZM900.317 1147H871.697V1143.25C872.611 1143.18 873.539 1143.09 874.494 1143.02C875.449 1142.94 876.28 1142.78 876.988 1142.55C878.101 1142.22 878.953 1141.62 879.544 1140.76C880.135 1139.91 880.438 1138.8 880.438 1137.44V1095.6H864.159C864.159 1104.84 863.492 1112.8 862.132 1119.48C860.792 1126.15 859.053 1131.58 856.923 1135.8C854.814 1139.93 852.443 1143.02 849.791 1145.05C847.138 1147.11 844.417 1148.14 841.662 1148.14C838.906 1148.14 836.652 1147.42 835.175 1146C833.718 1144.56 832.983 1142.91 832.983 1141.01C832.983 1139.65 833.45 1138.37 834.385 1137.15C835.319 1135.95 836.673 1135.33 838.46 1135.33C840.122 1135.33 841.62 1135.8 842.96 1136.71C844.321 1137.62 845.613 1138.88 846.891 1140.52C847.825 1139.68 848.959 1138.13 850.237 1135.88C851.536 1133.62 852.711 1130.83 853.762 1127.49C854.958 1123.91 855.934 1120.16 856.683 1116.3C857.432 1112.44 857.817 1107.99 857.817 1102.99C857.817 1101.03 857.555 1099.58 857.047 1098.63C856.518 1097.68 855.707 1096.94 854.594 1096.41C853.845 1096.03 852.629 1095.68 850.924 1095.35C849.22 1095.04 847.826 1094.83 846.767 1094.71V1090.95H900.097V1094.71C898.943 1094.79 897.946 1094.87 897.094 1094.99C896.242 1095.1 895.452 1095.24 894.744 1095.39C893.631 1095.68 892.82 1096.28 892.27 1097.18C891.741 1098.07 891.48 1099.18 891.48 1100.52V1136.9C891.48 1138.22 891.7 1139.29 892.188 1140.1C892.655 1140.92 893.466 1141.56 894.62 1142.01C895.452 1142.39 896.345 1142.67 897.314 1142.86C898.29 1143.05 899.279 1143.19 900.317 1143.26V1147.01V1147Z" fill="url(#paint0_linear_308_1001)"/>
</g>
<g filter="url(#filter1_d_308_1001)">
<path fill-rule="evenodd" clip-rule="evenodd" d="M48.8261 789.021C49.3012 787.578 50.7091 788.262 51.0046 788.87C53.0499 793.094 55.5818 797.532 61.2019 797.341C66.5034 797.156 70.6287 795.667 76.2546 792.665C80.826 790.226 86.6952 788.106 93.7349 786.095C100.774 784.085 109.031 783.076 118.504 783.076C155.718 783.076 202.267 802.811 201.815 837.62C201.403 869.053 187.996 886.481 153.105 900.971V902.744C202.371 905.415 227.969 945.724 204.729 988.141C189.879 1015.25 147.427 1024.54 116.685 1024.54C106.244 1024.54 97.3792 1023.54 90.0963 1021.53C80.5826 1018.9 53.3454 1008.61 45.1875 1004.52V956.865C45.8075 953.748 49.0868 953.094 50.1413 957.033C52.4473 970.997 55.6571 982.527 63.8787 994.364C74.3426 1009.43 102.443 1017.5 113.84 1017.5C145.985 1017.5 176.994 987.556 176.994 955.753C176.994 923.95 145.451 906.024 116.847 906.024H94.123C90.6293 906.024 90.0847 898.428 94.1984 898.428C107.24 898.428 122.316 899.563 134.791 895.942C154.415 890.241 164.038 860.211 164.038 841.67C164.038 813.402 142.786 791.118 113.62 791.118C101.615 791.118 88.8506 796.698 78.8155 803.315C69.4757 809.474 55.2631 831.815 51.416 840.355C50.3905 842.922 48.8898 842.047 48.8377 840.303V789.021H48.8261ZM254.702 956.86C255.53 953.911 260.119 954.756 260.351 957.028C261.284 963.105 261.631 981.449 272.709 994.59C285.155 1009.36 303.736 1017.53 323.25 1017.53C347.776 1017.53 366.345 1004.43 380.546 985.487C394.747 966.547 402.094 941.396 402.58 907.072H320.863C320.127 907.072 319.345 907.576 318.893 908.527C314.634 917.467 312.12 926.21 310.799 935.671C310.295 936.529 306.164 936.957 305.405 935.671V867.859C306.036 866.967 310.04 866.874 310.799 867.859C311.517 877.604 313.881 888.033 318.875 896.209C319.298 896.898 319.866 896.887 321.094 896.887H402.221C400.767 865.402 392.991 837.232 378.912 819.833C364.827 802.434 346.014 791.124 322.462 791.124C296.963 791.124 264.198 816.855 259.065 842.29C258.891 843.148 256.208 845.489 254.69 842.464V790.562C255.501 788.216 256.747 788.552 257.442 790.609C258.584 793.986 262.755 796.866 264.864 796.918C270.734 797.051 274.216 795.649 280.578 792.677C285.867 790.203 292.536 788.117 300.428 786.107C308.319 784.096 317.485 783.088 327.926 783.088C344.682 783.088 360.099 785.574 374.178 790.545C423.844 808.077 438.335 856.202 438.335 903.822C438.335 951.442 423.641 999.636 374.178 1017.1C360.093 1022.07 344.676 1024.56 327.926 1024.56C317.485 1024.56 308.319 1023.55 300.428 1021.54C291.951 1019.38 260.363 1008.48 254.713 1004.53V956.877L254.702 956.86ZM655.752 842.626C654.344 847.337 649.251 845.576 648.747 842.626C648.011 827 640.618 803.772 627.42 799.531C625.739 798.992 621.058 798.755 620.652 798.755H573.803V1002.46C573.803 1004.15 573.617 1004.1 575.141 1005.15C580.564 1008.91 594.672 1011.61 607.181 1012.88C612.518 1014.42 610.188 1019.2 607.181 1019.21H505.365C502.132 1019.3 500.996 1013.87 505.365 1012.88C517.103 1013.22 532.353 1008.72 538.274 1004.7C539.363 1003.96 539.201 1004.14 539.201 1002.89V798.749H492.398C491.587 798.749 486.627 799.218 485.3 799.589C467.287 804.647 463.347 823.344 463.347 842.621C461.881 846.937 458.463 845.802 457.252 842.621V788.395H655.74V842.621L655.752 842.626ZM688.157 1005.75L767.013 830.633L785.721 788.401L880.753 1006.17C881.223 1007 881.831 1007.47 882.474 1007.89C887.498 1011.23 892.434 1012.56 897.741 1012.88C901.206 1014.25 900.922 1018.23 897.741 1019.21H818.921C816.111 1018.44 815.914 1013.9 818.921 1012.88C829.182 1012.13 838 1011.15 845.022 1006.32C845.115 1006.25 845.208 1006.06 845.115 1005.88L810.937 931.511L732.55 931.395C721.165 956.13 709.937 980.505 698.552 1005.24C698.471 1005.42 698.164 1006 698.447 1006.29C703.697 1011.77 717.956 1012.73 725.21 1012.87C729.636 1015.38 726.855 1019.25 725.21 1019.21H662.131C658.898 1019.23 656.569 1014.78 662.131 1012.87C671.332 1012.26 679.774 1011.22 687.694 1006.25C688.036 1006.04 688.07 1005.93 688.157 1005.74V1005.75ZM736.137 923.562L807.165 922.982L771.862 842.4L736.137 923.562Z" fill="url(#paint1_linear_308_1001)"/>
</g>
<g filter="url(#filter2_d_308_1001)">
<path d="M188.602 543.173L507.995 434.163" stroke="#ECC350" stroke-width="1.58685" stroke-miterlimit="22.93"/>
<path d="M194.367 549.855L507.638 444.899" stroke="#ECC350" stroke-width="1.58685" stroke-miterlimit="22.93"/>
<path d="M195.812 557.335L507.675 454.123" stroke="#ECC350" stroke-width="1.58685" stroke-miterlimit="22.93"/>
<path d="M507.492 445.462L743.798 545.4" stroke="#ECC350" stroke-width="1.58685" stroke-miterlimit="22.93"/>
<path d="M507.992 434.163L746.709 537.19" stroke="#ECC350" stroke-width="1.58685" stroke-miterlimit="22.93"/>
<path d="M507.672 454.123L741.583 553.656" stroke="#ECC350" stroke-width="1.58685" stroke-miterlimit="22.93"/>
<path d="M236.664 374.318L296.42 347.527" stroke="#ECC350" stroke-width="1.58685" stroke-miterlimit="22.93"/>
<path d="M236.664 403.765L296.42 378.202" stroke="#ECC350" stroke-width="1.58685" stroke-miterlimit="22.93"/>
<path d="M236.664 434.937L296.42 409.901" stroke="#ECC350" stroke-width="1.58685" stroke-miterlimit="22.93"/>
<path d="M236.664 495.22L296.42 473.498" stroke="#ECC350" stroke-width="1.58685" stroke-miterlimit="22.93"/>
<path d="M551.438 416.396L604.252 441.012" stroke="#ECC350" stroke-width="1.58685" stroke-miterlimit="22.93"/>
<path d="M551.383 346.276L604.248 374.021" stroke="#ECC350" stroke-width="1.58685" stroke-miterlimit="22.93"/>
<path d="M551.367 312.357L604.255 341.318" stroke="#ECC350" stroke-width="1.58685" stroke-miterlimit="22.93"/>
<path d="M551.336 277.875L604.251 308.428" stroke="#ECC350" stroke-width="1.58685" stroke-miterlimit="22.93"/>
<path d="M236.672 613.306L296.585 596.507" stroke="#E4BA4D" stroke-width="1.58685" stroke-miterlimit="22.93"/>
<path d="M236.754 321.361L236.664 527.197" stroke="#ECC350" stroke-width="1.58685" stroke-miterlimit="22.93"/>
<path d="M658.867 588.864L701.14 604.289" stroke="#E4BA4D" stroke-width="1.58685" stroke-miterlimit="22.93"/>
<path d="M254.672 312.659V520.934" stroke="#ECC350" stroke-width="1.58685" stroke-miterlimit="22.93"/>
<path d="M275.347 302.618L275.336 513.853" stroke="#ECC350" stroke-width="1.58685" stroke-miterlimit="22.93"/>
<path fill-rule="evenodd" clip-rule="evenodd" d="M313.933 500.633L296.422 506.638V287.233L313.928 278.575L313.933 500.633Z" stroke="#ECC350" stroke-width="1.58685" stroke-miterlimit="22.93"/>
<path fill-rule="evenodd" clip-rule="evenodd" d="M399.506 471.292L377.094 478.833V248.533L394.605 239.522L398.99 242.584L399.506 471.292Z" stroke="#ECC350" stroke-width="1.58685" stroke-miterlimit="22.93"/>
<path d="M317.672 264.369V498.386" stroke="#ECC350" stroke-width="1.58685" stroke-miterlimit="22.93"/>
<path d="M337.312 272.527V492.622" stroke="#ECC350" stroke-width="1.58685" stroke-miterlimit="22.93"/>
<path d="M358.25 236.216V485.458" stroke="#ECC350" stroke-width="1.58685" stroke-miterlimit="22.93"/>
<path d="M438.752 223.418L438.719 458.019" stroke="#ECC350" stroke-width="1.58685" stroke-miterlimit="22.93"/>
<path d="M778.89 280.424L765.062 283.71" stroke="#ECC350" stroke-width="1.58685" stroke-miterlimit="22.93"/>
<path d="M507.758 170.853L737.486 316.058" stroke="#ECC350" stroke-width="1.58685" stroke-miterlimit="22.93"/>
<path d="M571.502 231.481L571.406 461.388" stroke="#ECC350" stroke-width="1.58685" stroke-miterlimit="22.93"/>
<path d="M604.25 251.062V475.705" stroke="#ECC350" stroke-width="1.58685" stroke-miterlimit="22.93"/>
<path d="M659.109 280.081V499.385" stroke="#ECC350" stroke-width="1.58685" stroke-miterlimit="22.93"/>
<path d="M676.008 295.078V506.358" stroke="#ECC350" stroke-width="1.58685" stroke-miterlimit="22.93"/>
<path d="M690.391 304.26V512.726" stroke="#ECC350" stroke-width="1.58685" stroke-miterlimit="22.93"/>
<path d="M700.984 310.515L701.31 517.96" stroke="#ECC350" stroke-width="1.58685" stroke-miterlimit="22.93"/>
<path d="M736.556 315.47L736.023 532.274" stroke="#ECC350" stroke-width="1.58685" stroke-miterlimit="22.93"/>
<path d="M155.008 281.579L172.469 286.811" stroke="#ECC350" stroke-width="1.58685" stroke-miterlimit="22.93"/>
<path d="M201.985 538.358L201.055 322.687" stroke="#ECC350" stroke-width="1.58685" stroke-miterlimit="22.93"/>
<path d="M317.672 337.992L377.097 311.347" stroke="#ECC350" stroke-width="1.58685" stroke-miterlimit="22.93"/>
<path d="M399.125 301.466L463.12 272.768" stroke="#ECC350" stroke-width="1.58685" stroke-miterlimit="22.93"/>
<path d="M317.672 369.117L377.103 342.729" stroke="#ECC350" stroke-width="1.58685" stroke-miterlimit="22.93"/>
<path d="M399.203 334.244L463.097 306.797" stroke="#ECC350" stroke-width="1.58685" stroke-miterlimit="22.93"/>
<path d="M317.672 401.265L377.103 376.655" stroke="#ECC350" stroke-width="1.58685" stroke-miterlimit="22.93"/>
<path d="M399.281 368.094L463.075 342.166" stroke="#ECC350" stroke-width="1.58685" stroke-miterlimit="22.93"/>
<path d="M317.672 465.767L377.097 443.668" stroke="#ECC350" stroke-width="1.58685" stroke-miterlimit="22.93"/>
<path d="M399.43 436.043L463.021 412.925" stroke="#ECC350" stroke-width="1.58685" stroke-miterlimit="22.93"/>
<path d="M394.609 472.999V239.144" stroke="#ECC350" stroke-width="1.58685" stroke-miterlimit="22.93"/>
<path d="M223.367 311.051V531.174" stroke="#ECC350" stroke-width="1.58685" stroke-miterlimit="22.93"/>
<path d="M474.453 445.501L473.141 187.115" stroke="#ECC350" stroke-width="1.58685" stroke-miterlimit="22.93"/>
<path d="M503.875 172.578L504.464 435.193" stroke="#ECC350" stroke-width="1.58685" stroke-miterlimit="22.93"/>
<path d="M540.961 448.119L542.279 192.682" stroke="#ECC350" stroke-width="1.58685" stroke-miterlimit="22.93"/>
<path d="M511.153 172.846L510.945 435.068" stroke="#ECC350" stroke-width="1.58685" stroke-miterlimit="22.93"/>
<path d="M625.828 451.119L638.035 456.934" stroke="#ECC350" stroke-width="1.58685" stroke-miterlimit="22.93"/>
<path d="M659.547 466.941L701.242 486.235" stroke="#ECC350" stroke-width="1.58685" stroke-miterlimit="22.93"/>
<path d="M659.109 402.574L701.108 424.296" stroke="#ECC350" stroke-width="1.58685" stroke-miterlimit="22.93"/>
<path d="M625.828 385.089L638.035 391.554" stroke="#ECC350" stroke-width="1.58685" stroke-miterlimit="22.93"/>
<path d="M625.828 353.129L638.035 359.813" stroke="#ECC350" stroke-width="1.58685" stroke-miterlimit="22.93"/>
<path d="M659.109 371.356L701.04 394.312" stroke="#ECC350" stroke-width="1.58685" stroke-miterlimit="22.93"/>
<path d="M625.828 320.818L638.164 327.905" stroke="#ECC350" stroke-width="1.58685" stroke-miterlimit="22.93"/>
<path d="M659.109 339.939L700.973 363.983" stroke="#ECC350" stroke-width="1.58685" stroke-miterlimit="22.93"/>
<path d="M715.417 302.253L715.266 523.447" stroke="#ECC350" stroke-width="1.58685" stroke-miterlimit="22.93"/>
<path d="M394.609 239.226L398.994 242.584L463.169 211.638" stroke="#ECC350" stroke-width="1.58685" stroke-miterlimit="22.93"/>
<path d="M314.188 278.24L318 281.918L377.095 253.22" stroke="#ECC350" stroke-width="1.58685" stroke-miterlimit="22.93"/>
<path d="M608.311 477.978V247.79M608.311 247.796L604.252 251.446L551.297 219.171" stroke="#ECC350" stroke-width="1.58685" stroke-miterlimit="22.93"/>
<path d="M625.828 259.647V484.581" stroke="#ECC350" stroke-width="1.58685" stroke-miterlimit="22.93"/>
<path d="M638.031 271.881V490.288" stroke="#ECC350" stroke-width="1.58685" stroke-miterlimit="22.93"/>
<path d="M641.594 268.857L641.941 491.75" stroke="#ECC350" stroke-width="1.58685" stroke-miterlimit="22.93"/>
<path d="M641.231 268.76L638.035 272.124L625.828 264.492" stroke="#ECC350" stroke-width="1.58685" stroke-miterlimit="22.93"/>
<path d="M234.82 317.107L236.659 321.402L296.416 292.39" stroke="#ECC350" stroke-width="1.58685" stroke-miterlimit="22.93"/>
<path d="M704.091 308.812L700.984 310.511L659.109 284.28" stroke="#ECC350" stroke-width="1.58685" stroke-miterlimit="22.93"/>
<path d="M188.688 542.319V545.941" stroke="#ECC350" stroke-width="1.58685" stroke-miterlimit="22.93"/>
<path d="M188.336 546.496L507.757 437.895" stroke="#ECC350" stroke-width="1.58685" stroke-miterlimit="22.93"/>
<path d="M743.817 539.532L507.758 437.895" stroke="#ECC350" stroke-width="1.58685" stroke-miterlimit="22.93"/>
<path d="M498.95 465.298L477.391 472.464" stroke="#ECC350" stroke-width="1.58685" stroke-miterlimit="22.93"/>
<path d="M463.066 482.522L233.242 556.549" stroke="#ECC350" stroke-width="1.58685" stroke-miterlimit="22.93"/>
<path d="M516.859 465.882L538.167 475.246" stroke="#ECC350" stroke-width="1.58685" stroke-miterlimit="22.93"/>
<path d="M394.617 504.679L399.002 506.787L463.053 486.495" stroke="#ECC350" stroke-width="1.58685" stroke-miterlimit="22.93"/>
<path d="M313.922 530.562L317.668 532.883L382.162 512.311" stroke="#ECC350" stroke-width="1.58685" stroke-miterlimit="22.93"/>
<path d="M234.695 556.084L236.669 558.725L297.003 539.514" stroke="#ECC350" stroke-width="1.58685" stroke-miterlimit="22.93"/>
<path d="M219.3 557.646L204.031 562.95" stroke="#ECC350" stroke-width="1.58685" stroke-miterlimit="22.93"/>
<path d="M551.891 486.076L705.052 549.533" stroke="#ECC350" stroke-width="1.58685" stroke-miterlimit="22.93"/>
<path d="M641.224 523.167L637.815 524.484L622.445 518.098" stroke="#ECC350" stroke-width="1.58685" stroke-miterlimit="22.93"/>
<path d="M704.203 549.897L702.201 551.367L658.852 533.294" stroke="#ECC350" stroke-width="1.58685" stroke-miterlimit="22.93"/>
<path fill-rule="evenodd" clip-rule="evenodd" d="M534.548 54.9509L124.727 282.722L140.074 276.139L507.213 72.2436L534.548 54.9509Z" fill="#ECC350" stroke="#ECC350" stroke-width="0.319612" stroke-miterlimit="22.93"/>
<path fill-rule="evenodd" clip-rule="evenodd" d="M485.383 54.1467L821.503 294.641L805.017 284.671L506.612 71.6525L485.383 54.1467Z" fill="#ECC350" stroke="#ECC350" stroke-width="0.319612" stroke-miterlimit="22.93"/>
<path fill-rule="evenodd" clip-rule="evenodd" d="M507.788 83.3574L151.516 277.132L151.477 278.932L507.76 85.4265L507.788 83.3574Z" fill="#ECC350" stroke="#ECC350" stroke-width="0.319612" stroke-miterlimit="22.93"/>
<path fill-rule="evenodd" clip-rule="evenodd" d="M508.188 83.4331L785.196 278.525L785.106 280.252L508.216 85.5695L508.188 83.4331Z" fill="#ECC350" stroke="#ECC350" stroke-width="0.319612" stroke-miterlimit="22.93"/>
<path fill-rule="evenodd" clip-rule="evenodd" d="M503.993 92.2433L507.475 18.0764L511.097 92.4563L511.927 702.809L507.374 748.738L503.18 701.766L503.993 92.2433Z" fill="url(#paint2_linear_308_1001)"/>
<path fill-rule="evenodd" clip-rule="evenodd" d="M569.859 496.915L571.794 497.997V666.36L570.908 677.641L569.859 666.36V496.915Z" fill="url(#paint3_linear_308_1001)"/>
<path fill-rule="evenodd" clip-rule="evenodd" d="M589.359 505.623L591.288 506.419V630.776L590.402 639.109L589.359 630.776V505.623Z" fill="url(#paint4_linear_308_1001)"/>
<path fill-rule="evenodd" clip-rule="evenodd" d="M603.125 511.094L604.74 512.03V657.661L604 667.418L603.125 657.661V511.094Z" fill="url(#paint5_linear_308_1001)"/>
<path fill-rule="evenodd" clip-rule="evenodd" d="M621.523 515.053L623.452 515.933V652.621L622.566 661.777L621.523 652.621V515.053Z" fill="url(#paint6_linear_308_1001)"/>
<path fill-rule="evenodd" clip-rule="evenodd" d="M607.164 508.991L608.773 510.05V675.004L608.033 686.056L607.164 675.004V508.991Z" fill="url(#paint7_linear_308_1001)"/>
<path fill-rule="evenodd" clip-rule="evenodd" d="M636.656 523.225L638.215 524.301V692.193L637.497 703.441L636.656 692.193V523.225Z" fill="url(#paint8_linear_308_1001)"/>
<path fill-rule="evenodd" clip-rule="evenodd" d="M640.023 522.126L641.621 523.079V671.771L640.893 681.736L640.023 671.771V522.126Z" fill="url(#paint9_linear_308_1001)"/>
<path fill-rule="evenodd" clip-rule="evenodd" d="M658.234 529.411L660.012 530.207V654.564L659.193 662.897L658.234 654.564V529.411Z" fill="url(#paint10_linear_308_1001)"/>
<path fill-rule="evenodd" clip-rule="evenodd" d="M674.906 540.525L676.897 541.08L676.841 731.177L675.955 743.871L674.906 731.177V540.525Z" fill="url(#paint11_linear_308_1001)"/>
<path fill-rule="evenodd" clip-rule="evenodd" d="M689.234 546.044L691.163 547.093V710.347L690.277 721.281L689.234 710.347V546.044Z" fill="url(#paint12_linear_308_1001)"/>
<path fill-rule="evenodd" clip-rule="evenodd" d="M700.352 550.216L702.28 550.917V659.983L701.394 667.289L700.352 659.983V550.216Z" fill="url(#paint13_linear_308_1001)"/>
<path fill-rule="evenodd" clip-rule="evenodd" d="M703.523 548.222L705.458 548.828V644.353L704.566 650.695L703.523 644.353V548.222Z" fill="url(#paint14_linear_308_1001)"/>
<path d="M551.906 489.801L604.087 511.557L608.393 509.135" stroke="#ECC350" stroke-width="1.58685" stroke-miterlimit="22.93"/>
<path fill-rule="evenodd" clip-rule="evenodd" d="M713.594 541.082L715.528 541.687V636.393L714.642 642.735L713.594 636.393V541.082Z" fill="url(#paint15_linear_308_1001)"/>
<path fill-rule="evenodd" clip-rule="evenodd" d="M736.102 551.604L738.036 552.642V714.012L737.144 724.823L736.102 714.012V551.604Z" fill="url(#paint16_linear_308_1001)"/>
<path fill-rule="evenodd" clip-rule="evenodd" d="M717.688 546.999L719.622 547.874V768.171L718.736 782.587L717.688 768.171V546.999Z" fill="url(#paint17_linear_308_1001)"/>
<path fill-rule="evenodd" clip-rule="evenodd" d="M733.03 553.756L734.903 554.434V644.985L734.017 650.738L732.969 644.985L733.03 553.756Z" fill="url(#paint18_linear_308_1001)"/>
<path fill-rule="evenodd" clip-rule="evenodd" d="M784.039 232.774L785.02 225.9L785.631 232.797V323.365L784.903 329.914L784.039 323.365V232.774Z" fill="#ECC350"/>
<path fill-rule="evenodd" clip-rule="evenodd" d="M150.555 238.906L151.598 232.374L152.242 238.929V324.994L151.469 331.213L150.555 324.994V238.906Z" fill="#ECC350"/>
<path fill-rule="evenodd" clip-rule="evenodd" d="M550.961 484.825L552.654 485.526V653.704L551.875 664.985L550.961 653.704V484.825Z" fill="url(#paint19_linear_308_1001)"/>
<path fill-rule="evenodd" clip-rule="evenodd" d="M540.297 467.34L541.76 468.573V667.663L541.088 680.554L540.297 667.663V467.34Z" fill="url(#paint20_linear_308_1001)"/>
<path fill-rule="evenodd" clip-rule="evenodd" d="M516.266 464.632L517.6 465.304V682.321L516.989 696.754L516.266 682.321V464.632Z" fill="url(#paint21_linear_308_1001)"/>
<path fill-rule="evenodd" clip-rule="evenodd" d="M503.492 454.851L505.158 456.141V657.222L504.395 670.696L503.492 657.222V454.851Z" fill="url(#paint22_linear_308_1001)"/>
<path fill-rule="evenodd" clip-rule="evenodd" d="M510.305 455.051L511.97 456.346V658.027L511.207 671.54L510.305 658.027V455.051Z" fill="url(#paint23_linear_308_1001)"/>
<path fill-rule="evenodd" clip-rule="evenodd" d="M498.508 464.595L499.837 464.253V681.063L499.226 695.496L498.508 681.063V464.595Z" fill="url(#paint24_linear_308_1001)"/>
<path fill-rule="evenodd" clip-rule="evenodd" d="M472.109 466.022L474.038 465.546V633.908L473.152 645.19L472.109 633.908V466.022Z" fill="url(#paint25_linear_308_1001)"/>
<path fill-rule="evenodd" clip-rule="evenodd" d="M476.888 471.754L478.229 471.367L478.223 666.42L477.612 679.384L476.883 666.532L476.888 471.754Z" fill="url(#paint26_linear_308_1001)"/>
<path d="M622.367 575.433L637.591 581.007" stroke="#ECC350" stroke-width="1.58685" stroke-miterlimit="22.93"/>
<path d="M551.875 549.618L604.134 568.755" stroke="#ECC350" stroke-width="1.58685" stroke-miterlimit="22.93"/>
<path fill-rule="evenodd" clip-rule="evenodd" d="M551.728 594.05L551.672 591.998L675.592 633.06L684.003 636.783L674.98 634.899L551.728 594.05Z" fill="#ECC350"/>
<path fill-rule="evenodd" clip-rule="evenodd" d="M507.781 160.378L771.164 329.212L755.441 320.784L508.017 163.159L507.781 160.378Z" fill="#ECC350" stroke="#ECC350" stroke-width="0.319612" stroke-miterlimit="22.93"/>
<path fill-rule="evenodd" clip-rule="evenodd" d="M507.219 168.667L754.24 325.77L738.517 317.343L507.454 171.448L507.219 168.667Z" fill="#ECC350" stroke="#ECC350" stroke-width="0.319612" stroke-miterlimit="22.93"/>
<path fill-rule="evenodd" clip-rule="evenodd" d="M507.241 168.921L184.797 329.501L194.116 326.339L506.944 171.703L507.241 168.921Z" fill="#ECC350" stroke="#ECC350" stroke-width="0.319612" stroke-miterlimit="22.93"/>
<path fill-rule="evenodd" clip-rule="evenodd" d="M507.782 160.378L171.398 329.212L191.472 320.784L507.485 163.159L507.782 160.378Z" fill="#ECC350" stroke="#ECC350" stroke-width="0.319612" stroke-miterlimit="22.93"/>
<path fill-rule="evenodd" clip-rule="evenodd" d="M462.12 481.984L464.054 481.333L464.02 637.27L463.129 648.552L462.086 637.27L462.12 481.984Z" fill="url(#paint27_linear_308_1001)"/>
<path fill-rule="evenodd" clip-rule="evenodd" d="M437.68 494.256L439.614 493.835V643.083L438.723 653.081L437.68 643.083V494.256Z" fill="url(#paint28_linear_308_1001)"/>
<path fill-rule="evenodd" clip-rule="evenodd" d="M417.945 500.257L419.88 499.781V668.143L418.994 679.425L417.945 668.143V500.257Z" fill="url(#paint29_linear_308_1001)"/>
<path fill-rule="evenodd" clip-rule="evenodd" d="M398.172 506.574L400.101 506.344V587.801L399.215 593.262L398.172 587.801V506.574Z" fill="#ECC350"/>
<path fill-rule="evenodd" clip-rule="evenodd" d="M393.656 504.343L395.591 504.029V614.85L394.705 622.274L393.656 614.85V504.343Z" fill="#ECC350"/>
<path fill-rule="evenodd" clip-rule="evenodd" d="M381.039 508.579L382.974 508.097V676.465L382.088 687.742L381.039 676.465V508.579Z" fill="url(#paint30_linear_308_1001)"/>
<path fill-rule="evenodd" clip-rule="evenodd" d="M336.422 526.258L338.356 525.899V651.697L337.47 660.125L336.422 651.697V526.258Z" fill="url(#paint31_linear_308_1001)"/>
<path fill-rule="evenodd" clip-rule="evenodd" d="M357.453 519.37L359.388 518.888V687.256L358.502 698.538L357.453 687.256V519.37Z" fill="url(#paint32_linear_308_1001)"/>
<path fill-rule="evenodd" clip-rule="evenodd" d="M317.328 532.735L319.117 532.449V632.762L318.298 639.48L317.328 632.762V532.735Z" fill="#ECC350"/>
<path fill-rule="evenodd" clip-rule="evenodd" d="M312.945 530.32L314.756 529.933V665.617L313.927 674.706L312.945 665.617V530.32Z" fill="#ECC350"/>
<path fill-rule="evenodd" clip-rule="evenodd" d="M295.867 536.41L297.42 535.961V694.377L296.708 704.986L295.867 694.377V536.41Z" fill="url(#paint33_linear_308_1001)"/>
<path fill-rule="evenodd" clip-rule="evenodd" d="M274.328 546.358L276.257 546.044V656.372L275.371 663.762L274.328 656.372V546.358Z" fill="url(#paint34_linear_308_1001)"/>
<path fill-rule="evenodd" clip-rule="evenodd" d="M253.578 552.562L255.507 552.361V624.195L254.621 629.006L253.578 624.195V552.562Z" fill="url(#paint35_linear_308_1001)"/>
<path fill-rule="evenodd" clip-rule="evenodd" d="M232.766 555.854L234.695 555.254V669.053L233.809 676.662L232.766 669.053V555.854Z" fill="#ECC350"/>
<path fill-rule="evenodd" clip-rule="evenodd" d="M222.352 548.616L224.286 548.291V662.561L223.4 670.215L222.352 662.561V548.616Z" fill="url(#paint36_linear_308_1001)"/>
<path fill-rule="evenodd" clip-rule="evenodd" d="M218.43 557.091L220.364 556.429V687.055L219.478 695.724L218.43 687.055V557.091Z" fill="url(#paint37_linear_308_1001)"/>
<path fill-rule="evenodd" clip-rule="evenodd" d="M203.258 562.377L205.192 561.777L205.293 642.128L204.407 647.438L203.364 642.128L203.258 562.377Z" fill="#ECC350"/>
<path fill-rule="evenodd" clip-rule="evenodd" d="M199.859 556.084L201.794 555.653V707.698L200.908 717.881L199.859 707.698V556.084Z" fill="url(#paint38_linear_308_1001)"/>
<path d="M318.875 590.239L382.977 572.251" stroke="#ECC350" stroke-width="1.58685" stroke-miterlimit="22.93"/>
<path d="M400.102 567.455L463.02 549.803" stroke="#ECC350" stroke-width="1.58685" stroke-miterlimit="22.93"/>
<path fill-rule="evenodd" clip-rule="evenodd" d="M463.426 592.113L463.605 590.067L258.801 642.758L250.172 645.948L259.289 644.625L463.426 592.113Z" fill="url(#paint39_linear_308_1001)"/>
<path d="M188.688 542.917L188.727 546.365L191.329 545.479V550.862L195.242 549.567V557.355" stroke="#ECC350" stroke-width="1.58685" stroke-miterlimit="22.93"/>
<path d="M746.435 536.971V540.554L743.29 539.332V545.466L740.609 544.283V553.468" stroke="#ECC350" stroke-width="1.58685" stroke-miterlimit="22.93"/>
<path d="M517.219 188.95L534.708 199.329L537.954 197.663" stroke="#ECC350" stroke-width="1.58685" stroke-miterlimit="22.93"/>
<path d="M534.711 199.328L534.89 438.931" stroke="#ECC350" stroke-width="1.58685" stroke-miterlimit="22.93"/>
<path d="M498.564 188.139L479.864 196.802L477.453 194.374" stroke="#ECC350" stroke-width="1.58685" stroke-miterlimit="22.93"/>
<path d="M479.867 196.806L481.42 436.98" stroke="#ECC350" stroke-width="1.58685" stroke-miterlimit="22.93"/>
<path fill-rule="evenodd" clip-rule="evenodd" d="M537.438 474.062L538.985 474.645L538.901 664.494L538.228 677.183L537.438 664.494V474.062Z" fill="url(#paint40_linear_308_1001)"/>
<path fill-rule="evenodd" clip-rule="evenodd" d="M534.07 476.488L535.539 476.953V652.229L534.867 663.724L534.07 652.229V476.488Z" fill="url(#paint41_linear_308_1001)"/>
<path d="M517 469.821L534.534 477.446L538.173 475.243" stroke="#ECC350" stroke-width="1.58685" stroke-miterlimit="22.93"/>
<path d="M718.609 548.36L734.254 554.988" stroke="#ECC350" stroke-width="1.58685" stroke-miterlimit="22.93"/>
<path d="M499.046 468.914L480.794 474.582L477.391 472.463" stroke="#ECC350" stroke-width="1.58685" stroke-miterlimit="22.93"/>
<path fill-rule="evenodd" clip-rule="evenodd" d="M480.242 474.385L481.711 474.968V695.13L481.038 709.563L480.242 695.13V474.385Z" fill="url(#paint42_linear_308_1001)"/>
<path fill-rule="evenodd" clip-rule="evenodd" d="M204.062 327.103L204.41 532.014L219.757 526.474L219.095 320.206L204.062 327.103Z" stroke="#ECC350" stroke-width="1.58685" stroke-miterlimit="22.93"/>
<path d="M234.695 527.437V316.925L463.173 206.339L462.994 449.519" stroke="#ECC350" stroke-width="1.58685" stroke-miterlimit="22.93"/>
<path fill-rule="evenodd" clip-rule="evenodd" d="M477.25 194.468L478.063 437.688L499.791 429.877L498.552 183.719L477.25 194.468Z" stroke="#ECC350" stroke-width="1.58685" stroke-miterlimit="22.93"/>
<path fill-rule="evenodd" clip-rule="evenodd" d="M538.36 197.753L538.029 439.722L516.094 430.268L517.333 184.901L538.36 197.753Z" stroke="#ECC350" stroke-width="1.58685" stroke-miterlimit="22.93"/>
<path fill-rule="evenodd" clip-rule="evenodd" d="M733.621 318.606L733.038 525.446L719.211 519.278L719.654 309.876L733.621 318.606Z" stroke="#ECC350" stroke-width="1.58685" stroke-miterlimit="22.93"/>
<path d="M704.086 518.796V308.284L551.289 212.49L551.463 452.928" stroke="#ECC350" stroke-width="1.58685" stroke-miterlimit="22.93"/>
<path fill-rule="evenodd" clip-rule="evenodd" d="M507.945 433.036L747.223 537.655L770.554 546.296L507.985 435.161L507.945 433.036Z" fill="#E4BA4D" stroke="#ECC350" stroke-width="0.319612" stroke-miterlimit="22.93"/>
<path fill-rule="evenodd" clip-rule="evenodd" d="M507.906 452.452L741.274 554.235L754.641 558.289L507.946 455.043L507.906 452.452Z" fill="#E4BA4D" stroke="#ECC350" stroke-width="0.319612" stroke-miterlimit="22.93"/>
<path fill-rule="evenodd" clip-rule="evenodd" d="M507.904 452.452L196.271 558.037L178.844 561.906L507.854 455.043L507.904 452.452Z" fill="#E4BA4D" stroke="#ECC350" stroke-width="0.319612" stroke-miterlimit="22.93"/>
<path fill-rule="evenodd" clip-rule="evenodd" d="M507.945 433.036L188.602 543.167L158.945 551.814L507.894 435.161L507.945 433.036Z" fill="#E4BA4D" stroke="#ECC350" stroke-width="0.319612" stroke-miterlimit="22.93"/>
<path d="M507.186 90.1345L155.175 281.251L155.023 275.936" stroke="#ECC350" stroke-width="1.58685" stroke-miterlimit="22.93"/>
<path d="M194.445 318.509V325.764L201.073 326.959" stroke="#ECC350" stroke-width="1.58685" stroke-miterlimit="22.93"/>
<path d="M507.82 89.9351L778.291 279.684L778.33 274.306" stroke="#ECC350" stroke-width="1.58685" stroke-miterlimit="22.93"/>
<path d="M742.632 311.972V319.02L737.047 319.744" stroke="#ECC350" stroke-width="1.58685" stroke-miterlimit="22.93"/>
<path d="M511.155 164.022L511.094 92.4509" stroke="#ECC350" stroke-width="1.58685" stroke-miterlimit="22.93"/>
<path d="M503.992 163.142V92.2444" stroke="#ECC350" stroke-width="1.58685" stroke-miterlimit="22.93"/>
<path d="M223.154 303.715V286.899L186.483 270.156L183.007 272.051L182.109 274.945" stroke="#ECC350" stroke-width="1.58685" stroke-miterlimit="22.93"/>
<path d="M551.055 168.234L604.351 203.526" stroke="#ECC350" stroke-width="1.58685" stroke-miterlimit="22.93"/>
<path d="M668.016 246.004L715.414 277.735" stroke="#ECC350" stroke-width="1.58685" stroke-miterlimit="22.93"/>
<path d="M459.788 164.688L399.18 195.937" stroke="#ECC350" stroke-width="1.58685" stroke-miterlimit="22.93"/>
<path d="M365.223 213.246L317.5 238.142" stroke="#ECC350" stroke-width="1.58685" stroke-miterlimit="22.93"/>
<path d="M286.005 253.523L222.93 286.796" stroke="#ECC350" stroke-width="1.58685" stroke-miterlimit="22.93"/>
<path d="M317.698 256.985V238.044L280.841 219.075L277.084 220.914L276.227 222.652" stroke="#ECC350" stroke-width="1.58685" stroke-miterlimit="22.93"/>
<path d="M399.181 216.091V195.933L362.818 175.018L359.213 177.036L358.344 179.397" stroke="#ECC350" stroke-width="1.58685" stroke-miterlimit="22.93"/>
<path d="M503.991 163.14V141.714L468.244 117.833L464.572 119.829L463.344 122.869" stroke="#ECC350" stroke-width="1.58685" stroke-miterlimit="22.93"/>
<path d="M715.414 294.791V277.74L748.917 264.052L751.098 266.021L750.97 269.749" stroke="#ECC350" stroke-width="1.58685" stroke-miterlimit="22.93"/>
<path d="M263.953 230.527L264.559 228.373L268.562 226.209L275.369 229.399" stroke="#ECC350" stroke-width="1.58685" stroke-miterlimit="22.93"/>
<path d="M342.094 188.435L342.8 186.002L346.675 183.994L361.898 191.418" stroke="#ECC350" stroke-width="1.58685" stroke-miterlimit="22.93"/>
<path d="M382.82 214.332V223.904" stroke="#ECC350" stroke-width="1.58685" stroke-miterlimit="22.93"/>
<path d="M438.617 136.461L439.744 133.803L443.445 131.841L480.425 153.787V175.341" stroke="#ECC350" stroke-width="1.58685" stroke-miterlimit="22.93"/>
<path d="M511.148 164.109L511.154 141.72L546.625 123.462L550.029 126.148L550.36 129.759" stroke="#ECC350" stroke-width="1.58685" stroke-miterlimit="22.93"/>
<path d="M480.422 153.789L484.981 151.305" stroke="#ECC350" stroke-width="1.58685" stroke-miterlimit="22.93"/>
<path d="M572.335 143.687L571.831 140.804L568.971 138.405L533.455 156.325L533.141 177.902" stroke="#ECC350" stroke-width="1.58685" stroke-miterlimit="22.93"/>
<path d="M529.359 153.484L533.615 156.428" stroke="#ECC350" stroke-width="1.58685" stroke-miterlimit="22.93"/>
<path d="M642.821 193.793L642.35 190.344L639.344 188.242L604.557 203.656L604.266 223.466" stroke="#ECC350" stroke-width="1.58685" stroke-miterlimit="22.93"/>
<path d="M629 209.758L654.104 198.476L657.333 200.949L657.653 203.646" stroke="#ECC350" stroke-width="1.58685" stroke-miterlimit="22.93"/>
<path d="M619.695 223.549V232.65" stroke="#ECC350" stroke-width="1.58685" stroke-miterlimit="22.93"/>
<path d="M676.547 216.879L676.676 214.423L672.947 211.72L639.158 226.697L638.883 245.493" stroke="#ECC350" stroke-width="1.58685" stroke-miterlimit="22.93"/>
<path d="M673.438 225.212L685.835 220.278L689.244 222.963L689.491 227.079" stroke="#ECC350" stroke-width="1.58685" stroke-miterlimit="22.93"/>
<path d="M652.177 244.306L652.172 253.928" stroke="#ECC350" stroke-width="1.58685" stroke-miterlimit="22.93"/>
<path d="M765.833 278.805L765.967 276.417L763.421 274.252L733.484 286.7" stroke="#ECC350" stroke-width="1.58685" stroke-miterlimit="22.93"/>
<path d="M730.914 293.312V304.829" stroke="#ECC350" stroke-width="1.58685" stroke-miterlimit="22.93"/>
<path d="M173.039 279.419L173.404 277.636L177.278 275.544L181.753 277.524" stroke="#ECC350" stroke-width="1.58685" stroke-miterlimit="22.93"/>
<path d="M183.273 272.155L186.952 270.108" stroke="#ECC350" stroke-width="1.58685" stroke-miterlimit="22.93"/>
<path d="M498.07 166.145L498.053 160.319C495.631 158.205 492.238 159.086 489.99 156.344C487.999 153.916 490.085 150.624 488.072 148.421L475.949 135.126C471.884 132.193 471.581 134.459 468.138 131.526C465.918 129.636 465.727 121.119 468.239 117.833" stroke="#ECC350" stroke-width="1.58685" stroke-miterlimit="22.93"/>
<path d="M494.391 168.138L494.374 162.312C491.952 160.198 488.733 161.673 486.485 158.937C484.494 156.509 486.406 152.617 484.399 150.414L472.276 137.119C468.211 134.187 467.908 136.452 464.465 133.519C462.245 131.63 462.351 122.944 464.566 119.826" stroke="#ECC350" stroke-width="1.58685" stroke-miterlimit="22.93"/>
<path d="M517.062 167.451L517.074 160.593C519.345 158.609 521.935 160.599 524.043 158.031C525.916 155.749 524.066 153.657 525.933 151.566L537.142 139.028C540.955 136.275 543.058 138.064 546.287 135.31C548.373 133.533 547.285 126.109 546.865 123.462" stroke="#ECC350" stroke-width="1.58685" stroke-miterlimit="22.93"/>
<path d="M520.508 169.331L520.519 162.473C522.79 160.488 525.218 163.045 527.326 160.471C529.199 158.189 527.511 155.537 529.378 153.445L540.587 140.908C544.4 138.154 546.211 140.184 549.441 137.431C551.527 135.654 550.204 128.617 549.789 125.964" stroke="#ECC350" stroke-width="1.58685" stroke-miterlimit="22.93"/>
<path d="M469.129 181.412L469.112 175.67C466.729 173.59 463.555 175.042 461.34 172.339C459.378 169.945 461.262 166.115 459.282 163.94L447.339 150.841C443.336 147.953 443.033 150.185 439.646 147.297C437.454 145.43 437.566 136.879 439.741 133.806" stroke="#ECC350" stroke-width="1.58685" stroke-miterlimit="22.93"/>
<path d="M472.741 179.447L472.724 173.706C470.341 171.625 466.999 172.489 464.779 169.786C462.816 167.392 464.874 164.151 462.889 161.981L450.946 148.882C446.942 145.995 446.639 148.226 443.252 145.339C441.066 143.471 440.881 135.083 443.348 131.848" stroke="#ECC350" stroke-width="1.58685" stroke-miterlimit="22.93"/>
<path d="M391.747 219.717L391.735 214.216C389.453 212.22 386.252 213.05 384.132 210.465C382.254 208.171 384.384 204.908 382.326 202.99L369.794 191.327C365.959 188.563 365.673 190.699 362.426 187.935C360.329 186.152 360.767 178.072 363.127 174.977" stroke="#ECC350" stroke-width="1.58685" stroke-miterlimit="22.93"/>
<path d="M388.279 221.604L388.267 216.104C385.985 214.108 382.946 215.504 380.827 212.919C378.948 210.625 380.916 206.796 378.858 204.878L366.326 193.215C362.491 190.451 362.205 192.587 358.958 189.823C356.861 188.04 357.372 179.853 359.463 176.915" stroke="#ECC350" stroke-width="1.58685" stroke-miterlimit="22.93"/>
<path d="M377.156 226.94L377.145 221.54C374.902 219.583 371.762 220.396 369.676 217.856C367.831 215.608 370.125 212.165 367.904 210.516L353.729 200.008C349.967 197.294 349.681 199.392 346.496 196.678C344.438 194.923 344.264 187.039 346.586 183.994" stroke="#ECC350" stroke-width="1.58685" stroke-miterlimit="22.93"/>
<path d="M373.749 228.789L373.738 223.389C371.495 221.432 368.512 222.8 366.432 220.26C364.587 218.012 366.718 214.014 364.497 212.365L350.322 201.857C346.554 199.143 346.274 201.24 343.089 198.527C341.031 196.772 341.132 188.731 343.179 185.843" stroke="#ECC350" stroke-width="1.58685" stroke-miterlimit="22.93"/>
<path d="M308.64 261.369L308.629 256.137C306.459 254.242 303.409 255.027 301.39 252.565C299.601 250.384 301.715 247.188 299.669 245.45L286.918 234.628C283.268 231.998 282.998 234.028 279.909 231.398C277.913 229.699 278.328 222.017 280.576 219.068" stroke="#ECC350" stroke-width="1.58685" stroke-miterlimit="22.93"/>
<path d="M305.338 263.155L305.327 257.923C303.157 256.028 300.264 257.351 298.245 254.889C296.456 252.708 298.413 248.974 296.372 247.241L283.621 236.419C279.971 233.789 279.702 235.819 276.612 233.19C274.616 231.491 275.104 223.708 277.089 220.91" stroke="#ECC350" stroke-width="1.58685" stroke-miterlimit="22.93"/>
<path d="M297.446 266.76L297.435 261.624C295.299 259.763 292.31 260.536 290.325 258.12C288.57 255.978 290.802 252.63 288.637 251.133L274.692 241.494C271.109 238.909 270.84 240.906 267.806 238.321C265.849 236.65 266.253 229.108 268.462 226.209" stroke="#ECC350" stroke-width="1.58685" stroke-miterlimit="22.93"/>
<path d="M294.214 268.518L294.203 263.381C292.066 261.52 289.229 262.821 287.25 260.404C285.495 258.262 287.575 254.387 285.41 252.89L271.465 243.251C267.882 240.667 267.613 242.663 264.58 240.078C262.623 238.407 263.099 230.764 265.051 228.017" stroke="#ECC350" stroke-width="1.58685" stroke-miterlimit="22.93"/>
<path d="M212.805 309.566L212.794 304.721C210.781 302.966 207.961 303.695 206.088 301.413C204.428 299.394 206.38 296.434 204.496 294.825L192.44 284.524C189.059 282.085 188.807 283.969 185.947 281.53C184.096 279.954 184.483 272.839 186.569 270.108" stroke="#ECC350" stroke-width="1.58685" stroke-miterlimit="22.93"/>
<path d="M209.752 311.219L209.741 306.374C207.728 304.619 205.053 305.841 203.18 303.565C201.52 301.546 203.332 298.092 201.442 296.477L189.386 286.177C186.005 283.738 185.753 285.622 182.893 283.182C181.043 281.607 181.497 274.396 183.336 271.805" stroke="#ECC350" stroke-width="1.58685" stroke-miterlimit="22.93"/>
<path d="M203.047 314.361L203.036 309.589C201.056 307.862 198.275 308.58 196.436 306.331C194.804 304.346 196.727 301.431 194.866 299.844L182.967 289.717C179.642 287.317 179.39 289.173 176.575 286.773C174.758 285.226 175.134 278.217 177.186 275.531" stroke="#ECC350" stroke-width="1.58685" stroke-miterlimit="22.93"/>
<path d="M200.05 315.994L200.038 311.222C198.059 309.495 195.424 310.701 193.584 308.458C191.953 306.468 193.736 303.064 191.874 301.483L179.976 291.356C176.651 288.956 176.398 290.812 173.583 288.412C171.767 286.865 172.21 279.766 174.021 277.215" stroke="#ECC350" stroke-width="1.58685" stroke-miterlimit="22.93"/>
<path d="M539.164 182.393L539.175 175.536C541.446 173.551 544.037 175.541 546.145 172.973C548.018 170.691 546.167 168.599 548.035 166.508L559.244 153.97C563.056 151.217 565.159 153.006 568.389 150.253C570.475 148.475 569.387 141.051 568.966 138.405" stroke="#ECC350" stroke-width="1.58685" stroke-miterlimit="22.93"/>
<path d="M542.609 184.266L542.621 177.408C544.892 175.423 547.319 177.98 549.428 175.407C551.301 173.124 549.613 170.472 551.48 168.381L562.689 155.843C566.502 153.09 568.313 155.12 571.543 152.366C573.629 150.589 572.305 143.552 571.89 140.9" stroke="#ECC350" stroke-width="1.58685" stroke-miterlimit="22.93"/>
<path d="M612.07 228.905L612.082 222.564C614.184 220.73 616.573 222.569 618.524 220.192C620.251 218.083 618.547 216.149 620.268 214.22L630.63 202.63C634.157 200.084 636.097 201.738 639.08 199.193C641.009 197.55 640 190.692 639.613 188.242" stroke="#ECC350" stroke-width="1.58685" stroke-miterlimit="22.93"/>
<path d="M615.258 230.63L615.269 224.289C617.372 222.455 619.615 224.816 621.56 222.438C623.287 220.33 621.729 217.874 623.456 215.945L633.818 204.355C637.345 201.809 639.016 203.682 642.004 201.142C643.933 199.499 642.711 192.995 642.324 190.544" stroke="#ECC350" stroke-width="1.58685" stroke-miterlimit="22.93"/>
<path d="M625.523 237.146L625.535 230.984C627.576 229.2 629.903 230.989 631.798 228.679C633.48 226.632 631.546 224.468 633.497 222.875L645.883 212.749C649.309 210.276 651.199 211.88 654.098 209.407C655.971 207.809 654.995 201.142 654.614 198.764" stroke="#ECC350" stroke-width="1.58685" stroke-miterlimit="22.93"/>
<path d="M628.617 238.832L628.628 232.669C630.669 230.886 632.851 233.179 634.746 230.869C636.428 228.823 634.639 226.154 636.591 224.555L648.977 214.429C652.403 211.956 654.029 213.778 656.934 211.306C658.807 209.708 657.618 203.388 657.242 201.005" stroke="#ECC350" stroke-width="1.58685" stroke-miterlimit="22.93"/>
<path d="M647.922 251.082L647.933 245.004C649.946 243.249 652.094 245.508 653.966 243.232C655.621 241.213 653.888 238.612 655.783 237.008L667.441 227.162C670.822 224.722 672.425 226.517 675.285 224.083C677.136 222.508 676.614 216.317 676.244 213.968" stroke="#ECC350" stroke-width="1.58685" stroke-miterlimit="22.93"/>
<path d="M644.867 249.429L644.878 243.351C646.891 241.596 649.185 243.356 651.058 241.08C652.712 239.061 650.833 236.959 652.729 235.355L664.386 225.509C667.767 223.069 669.623 224.651 672.488 222.217C674.339 220.642 673.369 214.07 672.999 211.72" stroke="#ECC350" stroke-width="1.58685" stroke-miterlimit="22.93"/>
<path d="M657.703 257.689L657.714 251.61C659.727 249.855 662.021 251.616 663.894 249.339C665.548 247.321 663.675 245.224 665.564 243.614L677.177 233.729C680.558 231.29 682.414 232.871 685.28 230.437C687.13 228.862 686.16 222.29 685.79 219.941" stroke="#ECC350" stroke-width="1.58685" stroke-miterlimit="22.93"/>
<path d="M660.758 259.344L660.769 253.266C662.782 251.511 664.93 253.77 666.802 251.494C668.457 249.475 666.73 246.879 668.619 245.27L680.232 235.384C683.613 232.945 685.217 234.739 688.076 232.306C689.927 230.73 689.573 225.061 689.203 222.718" stroke="#ECC350" stroke-width="1.58685" stroke-miterlimit="22.93"/>
<path d="M722.625 299.003L722.636 293.328C724.515 291.685 726.657 293.334 728.406 291.209C729.954 289.325 728.378 287.547 729.97 285.859L738.948 276.333C742.105 274.056 743.843 275.531 746.512 273.254C748.239 271.785 748.934 265.937 748.587 263.75" stroke="#ECC350" stroke-width="1.58685" stroke-miterlimit="22.93"/>
<path d="M725.477 300.543L725.488 294.869C727.366 293.226 729.374 295.34 731.123 293.215C732.671 291.331 731.23 289.088 732.822 287.405L741.799 277.879C744.956 275.602 746.453 277.279 749.122 275.002C750.849 273.533 751.354 268.004 751.006 265.812" stroke="#ECC350" stroke-width="1.58685" stroke-miterlimit="22.93"/>
<path d="M735.742 307.554L735.753 301.981C737.598 300.366 739.707 301.986 741.422 299.895C742.942 298.044 741.108 295.97 742.959 294.641L754.089 286.639C757.19 284.402 758.894 285.854 761.519 283.617C763.212 282.17 763.672 276.227 763.335 274.073" stroke="#ECC350" stroke-width="1.58685" stroke-miterlimit="22.93"/>
<path d="M738.547 309.079L738.558 303.505C740.403 301.89 742.377 303.97 744.092 301.879C745.612 300.029 743.913 297.5 745.758 296.171L756.888 288.169C759.989 285.932 761.458 287.581 764.082 285.343C765.776 283.902 766.05 278.261 765.708 276.108" stroke="#ECC350" stroke-width="1.58685" stroke-miterlimit="22.93"/>
<path d="M639.159 226.693L636.344 224.786" stroke="#ECC350" stroke-width="1.58685" stroke-miterlimit="22.93"/>
<path d="M418.578 233.007V483.397" stroke="#ECC350" stroke-width="1.58685" stroke-miterlimit="22.93"/>
<path d="M590.418 222.951L590.328 480.446" stroke="#ECC350" stroke-width="1.58685" stroke-miterlimit="22.93"/>
<path fill-rule="evenodd" clip-rule="evenodd" d="M507.978 435.167L159.461 551.64L187.884 547.322L506.61 438.284L507.978 435.167Z" fill="#ECC350"/>
<path fill-rule="evenodd" clip-rule="evenodd" d="M507.984 435.167L770.554 546.302L747.194 541.693L508.029 438.845L507.984 435.167Z" fill="#E4BA4D"/>
<path fill-rule="evenodd" clip-rule="evenodd" d="M483.212 435.901L477.61 437.689L477.453 194.38L482.887 192.345L483.212 435.901Z" fill="#ECC350"/>
<path fill-rule="evenodd" clip-rule="evenodd" d="M507.683 454.123L195.248 557.352L194.766 550.472L507.638 444.899L507.683 454.123Z" fill="#ECC350" stroke="#ECC350" stroke-width="0.319612" stroke-miterlimit="22.93"/>
<path fill-rule="evenodd" clip-rule="evenodd" d="M507.68 454.123L740.615 552.412L740.778 544.59L507.697 444.899L507.68 454.123Z" fill="#E4BA4D" stroke="#ECC350" stroke-width="0.319612" stroke-miterlimit="22.93"/>
<path fill-rule="evenodd" clip-rule="evenodd" d="M477.32 696.57L477.444 472.628L482.709 470.694L482.911 713.212L477.32 696.57Z" fill="url(#paint43_linear_308_1001)"/>
<path fill-rule="evenodd" clip-rule="evenodd" d="M237.396 734.668V559.391L232.764 555.859L232.086 722.909L237.396 734.668Z" fill="url(#paint44_linear_308_1001)"/>
<path fill-rule="evenodd" clip-rule="evenodd" d="M721.658 726.742L721.888 549.811L718.664 547.714L718.67 748.072L721.658 726.742Z" fill="url(#paint45_linear_308_1001)"/>
<path fill-rule="evenodd" clip-rule="evenodd" d="M318.437 709.01V533.734L313.806 530.201L313.133 697.252L318.437 709.01Z" fill="url(#paint46_linear_308_1001)"/>
<path fill-rule="evenodd" clip-rule="evenodd" d="M399.646 683.614V508.343L395.014 504.805L394.336 671.855L399.646 683.614Z" fill="url(#paint47_linear_308_1001)"/>
<path fill-rule="evenodd" clip-rule="evenodd" d="M235.734 558.779L233.945 556.328L296.645 536.181L296.629 539.641L235.734 558.779Z" fill="#ECC350"/>
<path fill-rule="evenodd" clip-rule="evenodd" d="M316.166 533.149L314.383 530.699L381.529 509.066L381.513 512.526L316.166 533.149Z" fill="#ECC350"/>
<path fill-rule="evenodd" clip-rule="evenodd" d="M396.767 507.071L394.984 504.621L463.079 482.708L463.062 486.168L396.767 507.071Z" fill="#ECC350"/>
<path fill-rule="evenodd" clip-rule="evenodd" d="M237.028 526.475L234.695 526.497V316.933L296.42 287.242V292.401L236.753 321.368L237.028 526.475Z" fill="#ECC350"/>
<path fill-rule="evenodd" clip-rule="evenodd" d="M317.585 499.858L313.867 500.632V278.602L376.977 248.155V253.314L317.31 282.286L317.585 499.858Z" fill="#ECC350"/>
<path fill-rule="evenodd" clip-rule="evenodd" d="M399.691 472.165L394.852 473.292V239.409L463.069 206.483V211.642L399.186 242.661L399.691 472.165Z" fill="#ECC350"/>
<path fill-rule="evenodd" clip-rule="evenodd" d="M603.477 702.421V512.801L608.103 508.977L608.781 689.698L603.477 702.421Z" fill="url(#paint48_linear_308_1001)"/>
<path fill-rule="evenodd" clip-rule="evenodd" d="M636.609 702.834V524.872L641.022 523.246L640.994 690.896L636.609 702.834Z" fill="url(#paint49_linear_308_1001)"/>
<path fill-rule="evenodd" clip-rule="evenodd" d="M700.828 689.803V550.878L705.247 549.611L705.219 680.484L700.828 689.803Z" fill="url(#paint50_linear_308_1001)"/>
<path fill-rule="evenodd" clip-rule="evenodd" d="M604.739 512.026L551.907 489.799L551.891 486.076L607.425 509.362L604.739 512.026Z" fill="#ECC350"/>
<path fill-rule="evenodd" clip-rule="evenodd" d="M638.214 525.266L622.525 518.638L622.508 514.915L640.9 522.608L638.214 525.266Z" fill="#ECC350"/>
<path fill-rule="evenodd" clip-rule="evenodd" d="M701.56 551.096L659.337 533.938L659.32 530.215L704.391 549.252L701.56 551.096Z" fill="#ECC350"/>
<path fill-rule="evenodd" clip-rule="evenodd" d="M603.87 477.783L608.709 478.91L609.163 248.672L551.297 213.15V218.309L604.829 251.924L603.87 477.783Z" fill="#ECC350"/>
<path fill-rule="evenodd" clip-rule="evenodd" d="M637.284 493.267L642.128 494.394L642.571 270.536L625.828 259.647V264.806L638.231 273.783L637.284 493.267Z" fill="#ECC350"/>
<path fill-rule="evenodd" clip-rule="evenodd" d="M699.521 519.908L704.365 521.035L704.808 308.252L659.109 280.081V284.286L700.468 310.696L699.521 519.908Z" fill="#ECC350"/>
<path fill-rule="evenodd" clip-rule="evenodd" d="M155.008 281.585L155.053 276.993L507.775 84.3955L778.319 275.484L778.891 280.43L507.187 90.1317L155.008 281.585Z" fill="#ECC350"/>
<path fill-rule="evenodd" clip-rule="evenodd" d="M172.453 279.88L173.401 277.631L176.692 276.342L175.223 283.384L177.416 287.422L182.03 289.104L194.876 299.853L196.452 307.187L203.041 309.593L203.052 313.321L200.299 314.706L199.592 310.641L193.71 308.611L192.342 303.2L191.579 300.655L178.094 290.27L174.461 289.087L172.47 286.81L172.453 279.88Z" fill="#ECC350"/>
<path fill-rule="evenodd" clip-rule="evenodd" d="M172.453 279.88L173.401 277.631L176.692 276.342L175.223 283.384L177.416 287.422L182.03 289.104L194.876 299.853L196.452 307.187L203.041 309.593L203.052 313.321L200.299 314.706L199.592 310.641L193.71 308.611L192.342 303.2L191.579 300.655L178.094 290.27L174.461 289.087L172.47 286.81L172.453 279.88Z" fill="#ECC350"/>
<path fill-rule="evenodd" clip-rule="evenodd" d="M181.703 275.323L182.651 273.075L185.942 271.785L184.473 278.828L186.666 282.865L191.65 283.992L204.126 295.296L205.259 297.388L206.526 302.126L212.291 305.036L212.302 308.77L209.549 310.15L208.842 306.09L202.96 304.06L201.598 298.649L200.829 296.098L187.344 285.719L183.711 284.53L181.72 282.254L181.703 275.323Z" fill="#ECC350"/>
<path fill-rule="evenodd" clip-rule="evenodd" d="M263.648 230.789L264.658 228.395L268.157 227.027L266.592 234.518L268.93 238.813L273.837 240.602L288.763 251.828L290.513 259.353L297.432 262.123L297.443 266.092L294.516 267.562L293.765 263.238L287.597 260.872L286.072 255.394L285.259 252.686L269.648 241.847L265.779 240.585L263.665 238.163L263.648 230.789Z" fill="#ECC350"/>
<path fill-rule="evenodd" clip-rule="evenodd" d="M275.633 224.827L276.379 221.603L279.883 220.229L278.577 228.556L280.909 232.851L286.214 234.046L299.486 246.073L300.692 248.294L302.037 253.34L308.172 256.435L308.637 261.37L305.71 262.839L304.504 257.557L298.247 255.398L296.794 249.639L295.981 246.931L281.633 235.885L277.764 234.623L275.65 232.201L275.633 224.827Z" fill="#ECC350"/>
<path fill-rule="evenodd" clip-rule="evenodd" d="M341.945 188.978L342.714 185.67L346.313 184.262L344.973 192.813L347.367 197.226L352.818 198.454L367.223 210.285L368.462 212.567L369.847 217.754L377.142 221.808L377.153 226.457L373.75 228.352L373.43 224.118L372.376 222.083L369.112 221.634L365.95 219.863L365.412 213.739L363.623 211.166L348.113 200.344L344.138 199.043L341.962 196.553L341.945 188.978Z" fill="#ECC350"/>
<path fill-rule="evenodd" clip-rule="evenodd" d="M357.789 180.488L358.557 177.174L362.157 175.767L360.817 184.318L363.211 188.731L368.661 189.964L381.597 203.001L382.837 205.283L384.216 210.47L391.517 214.524L391.528 219.172L388.119 221.068L387.799 216.834L386.75 214.799L383.481 214.35L380.325 212.578L379.786 206.455L377.992 203.881L363.957 191.848L359.981 190.553L357.806 188.063L357.789 180.488Z" fill="#ECC350"/>
<path fill-rule="evenodd" clip-rule="evenodd" d="M437.992 137.533L438.811 134.012L442.635 132.514L441.211 141.604L443.756 146.291L449.549 147.603L462.277 161.913L463.589 164.341L465.064 169.847L472.813 174.159L472.83 179.099L469.208 181.112L468.871 176.61L467.75 174.451L464.284 173.974L460.926 172.096L460.354 165.586L458.447 162.85L444.547 149.605L440.319 148.226L438.009 145.585L437.992 137.533Z" fill="#ECC350"/>
<path fill-rule="evenodd" clip-rule="evenodd" d="M463.156 123.656L463.969 120.135L467.793 118.637L466.369 127.727L468.92 132.414L474.707 133.727L487.436 148.036L488.753 150.464L490.222 155.97L497.977 160.282L497.988 165.222L494.372 167.235L494.03 162.733L492.914 160.574L489.443 160.097L486.084 158.219L485.512 151.709L483.606 148.973L469.705 135.728L465.483 134.349L463.173 131.708L463.156 123.656Z" fill="#ECC350"/>
<path fill-rule="evenodd" clip-rule="evenodd" d="M550.433 127.216L546.901 123.689L547.585 131.657L545.039 136.345L539.247 137.657L526.344 150.424L525.027 152.852L523.558 158.359L517.861 160.063L516.902 162.379L516.891 167.319L520.507 169.332L520.849 164.835L520.99 162.127L524.55 162.099L527.696 160.607L528.789 154.355L530.696 151.619L540.043 140.539L548.476 138.279L550.786 135.638L550.433 127.216Z" fill="#ECC350"/>
<path fill-rule="evenodd" clip-rule="evenodd" d="M572.792 142.351L569.26 138.824L569.944 146.792L567.398 151.479L561.606 152.791L548.704 165.559L547.386 167.987L545.917 173.493L540.22 175.198L539.261 177.514L539.25 182.454L542.867 184.467L543.209 179.97L543.343 177.261L546.904 177.233L550.055 175.742L551.149 169.49L553.049 166.753L562.402 155.673L570.83 153.414L573.14 150.773L572.792 142.351Z" fill="#ECC350"/>
<path fill-rule="evenodd" clip-rule="evenodd" d="M643.047 191.435L639.778 188.166L640.412 195.54L638.057 199.88L632.696 201.091L620.753 212.911L619.536 215.159L618.174 220.256L612.903 221.838L612.011 223.98L612 228.55L615.348 230.417L615.667 226.251L615.79 223.75L619.088 223.722L622.003 222.337L623.013 216.55L624.779 214.016L633.431 203.76L641.236 201.674L643.372 199.224L643.047 191.435Z" fill="#ECC350"/>
<path fill-rule="evenodd" clip-rule="evenodd" d="M657.842 202.157L654.573 198.888L655.206 206.267L652.846 210.607L647.485 211.818L633.832 222.427L632.615 224.67L631.353 229.021L626.082 230.597L625.191 232.739L625.18 237.315L628.527 239.176L628.847 235.01L628.97 232.509L632.267 232.481L635.183 231.096L636.091 226.061L637.858 223.526L648.225 214.488L656.025 212.396L658.167 209.951L657.842 202.157Z" fill="#ECC350"/>
<path fill-rule="evenodd" clip-rule="evenodd" d="M676.977 214.495L673.708 211.226L674.341 218.605L671.986 222.945L666.626 224.156L652.967 234.765L651.75 237.008L650.488 241.359L645.217 242.934L644.332 245.076L644.32 249.652L647.668 251.514L647.982 247.347L648.111 244.847L651.408 244.819L654.324 243.434L655.232 238.398L656.993 235.864L667.36 226.825L675.166 224.733L677.302 222.289L676.977 214.495Z" fill="#ECC350"/>
<path fill-rule="evenodd" clip-rule="evenodd" d="M689.357 223.986L686.088 220.717L687.136 226.616L684.775 230.956L679.415 232.167L665.761 242.776L664.545 245.019L664.017 249.897L658.012 250.946L657.121 253.093L657.109 257.663L660.463 259.525L660.777 255.359L660.9 252.858L664.197 252.83L667.113 251.445L668.027 246.41L669.787 243.881L680.155 234.836L687.96 232.745L689.149 230.205L689.357 223.986Z" fill="#ECC350"/>
<path fill-rule="evenodd" clip-rule="evenodd" d="M751.431 266.884L748.476 263.929L748.179 269.485L746.076 273.713L740.715 274.924L730.964 284.485L729.742 286.733L729.221 291.606L723.21 292.66L722.324 294.802L722.312 299.378L725.66 301.239L725.974 297.073L726.103 294.572L729.4 294.544L732.316 293.159L733.224 288.124L734.991 285.589L741.456 277.588L749.255 275.502L750.45 272.962L751.431 266.884Z" fill="#ECC350"/>
<path fill-rule="evenodd" clip-rule="evenodd" d="M766.196 276.996L763.241 274.046L763.539 279.681L761.43 283.904L756.07 285.115L743.622 293.453L742.399 295.696L741.569 300.26L735.867 301.628L735.469 304.297L735.917 308.273L739.265 310.134L738.771 305.901L738.76 303.535L741.749 303.193L744.665 301.808L745.08 296.952L747.648 294.557L756.81 287.784L764.615 285.692L765.804 283.152L766.196 276.996Z" fill="#ECC350"/>
<path fill-rule="evenodd" clip-rule="evenodd" d="M491.204 432.968L485.602 435.587L485.445 193.887L490.884 188.874L491.204 432.968Z" fill="#ECC350"/>
<path fill-rule="evenodd" clip-rule="evenodd" d="M499.335 430.854L493.733 432.497L493.61 190.803L477.893 198.014L477.68 194.246L498.55 184.035L499.335 430.854Z" fill="#ECC350"/>
<path fill-rule="evenodd" clip-rule="evenodd" d="M530.897 436.359L525.295 434.178L525.172 190.661C528.015 192.035 528.424 193.257 530.14 193.566L530.891 436.359H530.897Z" fill="#ECC350"/>
<path fill-rule="evenodd" clip-rule="evenodd" d="M522.188 432.758L516.586 430.638L516.9 191.221C518.621 189.017 516.25 192.864 521.84 187.885L522.182 432.758H522.188Z" fill="#ECC350"/>
<path fill-rule="evenodd" clip-rule="evenodd" d="M538.464 438.798L532.863 437.39L532.745 198.023L517.729 189.254L517.516 185.486L537.685 196.65L538.464 438.798Z" fill="#ECC350"/>
<path fill-rule="evenodd" clip-rule="evenodd" d="M485.734 685.303L485.858 468.903L491.123 467.03L491.325 701.384L485.734 685.303Z" fill="url(#paint51_linear_308_1001)"/>
<path fill-rule="evenodd" clip-rule="evenodd" d="M493.859 686.676L493.983 467.249L499.248 465.353L499.45 702.982L493.859 686.676Z" fill="url(#paint52_linear_308_1001)"/>
<path fill-rule="evenodd" clip-rule="evenodd" d="M538.379 690.961L538.256 474.539L532.991 472.666L532.789 707.043L538.379 690.961Z" fill="url(#paint53_linear_308_1001)"/>
<path fill-rule="evenodd" clip-rule="evenodd" d="M529.965 663.473L529.842 470.668L524.577 469.003L524.375 677.805L529.965 663.473Z" fill="url(#paint54_linear_308_1001)"/>
<path fill-rule="evenodd" clip-rule="evenodd" d="M521.84 656.054L521.717 468.941L516.452 467.326L516.25 669.96L521.84 656.054Z" fill="url(#paint55_linear_308_1001)"/>
<path fill-rule="evenodd" clip-rule="evenodd" d="M478.226 475.084L477.391 472.454L498.502 465.607L498.014 469.617L478.226 475.084Z" fill="#ECC350"/>
<path fill-rule="evenodd" clip-rule="evenodd" d="M536.441 477.679L537.277 475.054L516.586 466.666L517.074 470.67L536.441 477.679Z" fill="#ECC350"/>
<path fill-rule="evenodd" clip-rule="evenodd" d="M722.357 520.199L718.578 518.399L718.791 314.851C719.958 312.978 718.354 316.247 722.127 312.013L722.357 520.199Z" fill="#ECC350"/>
<path fill-rule="evenodd" clip-rule="evenodd" d="M728.238 523.25L724.459 521.394L724.375 314.364C726.298 315.53 726.573 316.568 727.728 316.831L728.233 523.245L728.238 523.25Z" fill="#ECC350"/>
<path fill-rule="evenodd" clip-rule="evenodd" d="M733.352 525.329L729.573 524.129L729.747 319.673L719.351 313.174L719.211 309.972L733.078 318.506L733.352 525.329Z" fill="#ECC350"/>
<path fill-rule="evenodd" clip-rule="evenodd" d="M727.822 685.509L728.052 551.737L724.828 550.835V701.641L727.822 685.509Z" fill="url(#paint56_linear_308_1001)"/>
<path fill-rule="evenodd" clip-rule="evenodd" d="M733.307 732.089L733.537 555.164L730.312 553.062V753.425L733.307 732.089Z" fill="url(#paint57_linear_308_1001)"/>
<path fill-rule="evenodd" clip-rule="evenodd" d="M215.561 707.323L215.32 559.208L218.69 557.453V725.188L215.561 707.323Z" fill="url(#paint58_linear_308_1001)"/>
<path fill-rule="evenodd" clip-rule="evenodd" d="M214.828 527.592L219.129 526.493L218.832 322.524C217.615 320.651 217.155 321.61 215.069 321.756L214.828 527.592Z" fill="#ECC350"/>
<path fill-rule="evenodd" clip-rule="evenodd" d="M208.688 530.647L212.641 528.791L212.725 324.11C210.717 325.276 210.431 326.314 209.22 326.577L208.688 530.647Z" fill="#ECC350"/>
<path fill-rule="evenodd" clip-rule="evenodd" d="M203.344 532.719L207.291 531.525L207.145 327.937L218.814 322.913L218.965 319.711L203.663 326.771L203.344 532.719Z" fill="#ECC350"/>
<path fill-rule="evenodd" clip-rule="evenodd" d="M209.116 688.433L208.875 560.566L212.245 559.708V703.847L209.116 688.433Z" fill="url(#paint59_linear_308_1001)"/>
<path fill-rule="evenodd" clip-rule="evenodd" d="M203.391 690.704L203.447 562.315L206.519 561.323L206.514 706.119L203.391 690.704Z" fill="url(#paint60_linear_308_1001)"/>
</g>
<defs>
<filter id="filter0_d_308_1001" x="-0.00343323" y="1043.63" width="945.515" height="200.903" filterUnits="userSpaceOnUse" color-interpolation-filters="sRGB">
<feFlood flood-opacity="0" result="BackgroundImageFix"/>
<feColorMatrix in="SourceAlpha" type="matrix" values="0 0 0 0 0 0 0 0 0 0 0 0 0 0 0 0 0 0 127 0" result="hardAlpha"/>
<feOffset dy="27.1146"/>
<feGaussianBlur stdDeviation="22.5955"/>
<feComposite in2="hardAlpha" operator="out"/>
<feColorMatrix type="matrix" values="0 0 0 0 0 0 0 0 0 0 0 0 0 0 0 0 0 0 0.6 0"/>
<feBlend mode="normal" in2="BackgroundImageFix" result="effect1_dropShadow_308_1001"/>
<feBlend mode="normal" in="SourceGraphic" in2="effect1_dropShadow_308_1001" result="shape"/>
</filter>
<filter id="filter1_d_308_1001" x="-0.00343323" y="765" width="945.429" height="331.861" filterUnits="userSpaceOnUse" color-interpolation-filters="sRGB">
<feFlood flood-opacity="0" result="BackgroundImageFix"/>
<feColorMatrix in="SourceAlpha" type="matrix" values="0 0 0 0 0 0 0 0 0 0 0 0 0 0 0 0 0 0 127 0" result="hardAlpha"/>
<feOffset dy="27.1146"/>
<feGaussianBlur stdDeviation="22.5955"/>
<feComposite in2="hardAlpha" operator="out"/>
<feColorMatrix type="matrix" values="0 0 0 0 0 0 0 0 0 0 0 0 0 0 0 0 0 0 0.6 0"/>
<feBlend mode="normal" in2="BackgroundImageFix" result="effect1_dropShadow_308_1001"/>
<feBlend mode="normal" in="SourceGraphic" in2="effect1_dropShadow_308_1001" result="shape"/>
</filter>
<filter id="filter2_d_308_1001" x="85.7613" y="4.19617e-05" width="826.214" height="891.045" filterUnits="userSpaceOnUse" color-interpolation-filters="sRGB">
<feFlood flood-opacity="0" result="BackgroundImageFix"/>
<feColorMatrix in="SourceAlpha" type="matrix" values="0 0 0 0 0 0 0 0 0 0 0 0 0 0 0 0 0 0 127 0" result="hardAlpha"/>
<feOffset dx="27.1146" dy="45.1909"/>
<feGaussianBlur stdDeviation="31.6337"/>
<feComposite in2="hardAlpha" operator="out"/>
<feColorMatrix type="matrix" values="0 0 0 0 0 0 0 0 0 0 0 0 0 0 0 0 0 0 0.7 0"/>
<feBlend mode="normal" in2="BackgroundImageFix" result="effect1_dropShadow_308_1001"/>
<feBlend mode="normal" in="SourceGraphic" in2="effect1_dropShadow_308_1001" result="shape"/>
</filter>
<linearGradient id="paint0_linear_308_1001" x1="472.745" y1="1103.6" x2="472.745" y2="1154.53" gradientUnits="userSpaceOnUse">
<stop stop-color="#F4E17F"/>
<stop offset="0.990385" stop-color="#DFC25F"/>
</linearGradient>
<linearGradient id="paint1_linear_308_1001" x1="472.704" y1="754.217" x2="472.704" y2="1059.46" gradientUnits="userSpaceOnUse">
<stop stop-color="#FFF3BB"/>
<stop offset="0.225962" stop-color="#E7BC48"/>
<stop offset="0.418269" stop-color="#EAC667"/>
<stop offset="0.538462" stop-color="#A26500"/>
<stop offset="1" stop-color="#FEE88E"/>
</linearGradient>
<linearGradient id="paint2_linear_308_1001" x1="507.553" y1="518.729" x2="507.553" y2="743.916" gradientUnits="userSpaceOnUse">
<stop stop-color="#F0C549"/>
<stop offset="1" stop-color="#F0C549" stop-opacity="0"/>
</linearGradient>
<linearGradient id="paint3_linear_308_1001" x1="570.829" y1="620.75" x2="570.829" y2="676.447" gradientUnits="userSpaceOnUse">
<stop stop-color="#F0C549"/>
<stop offset="1" stop-color="#E7BC48" stop-opacity="0"/>
</linearGradient>
<linearGradient id="paint4_linear_308_1001" x1="590.324" y1="597.088" x2="590.324" y2="638.228" gradientUnits="userSpaceOnUse">
<stop stop-color="#F0C549"/>
<stop offset="1" stop-color="#E7BC48" stop-opacity="0"/>
</linearGradient>
<linearGradient id="paint5_linear_308_1001" x1="603.932" y1="618.209" x2="603.932" y2="666.386" gradientUnits="userSpaceOnUse">
<stop stop-color="#F0C549"/>
<stop offset="1" stop-color="#E7BC48" stop-opacity="0"/>
</linearGradient>
<linearGradient id="paint6_linear_308_1001" x1="622.488" y1="615.591" x2="622.488" y2="660.807" gradientUnits="userSpaceOnUse">
<stop stop-color="#F0C549"/>
<stop offset="1" stop-color="#E7BC48" stop-opacity="0"/>
</linearGradient>
<linearGradient id="paint7_linear_308_1001" x1="607.966" y1="630.314" x2="607.966" y2="684.884" gradientUnits="userSpaceOnUse">
<stop stop-color="#F0C549"/>
<stop offset="1" stop-color="#E7BC48" stop-opacity="0"/>
</linearGradient>
<linearGradient id="paint8_linear_308_1001" x1="637.436" y1="620.757" x2="637.436" y2="676.442" gradientUnits="userSpaceOnUse">
<stop stop-color="#F0C549"/>
<stop offset="1" stop-color="#E7BC48" stop-opacity="0"/>
</linearGradient>
<linearGradient id="paint9_linear_308_1001" x1="640.825" y1="631.489" x2="640.825" y2="680.681" gradientUnits="userSpaceOnUse">
<stop stop-color="#F0C549"/>
<stop offset="1" stop-color="#E7BC48" stop-opacity="0"/>
</linearGradient>
<linearGradient id="paint10_linear_308_1001" x1="659.12" y1="620.876" x2="659.12" y2="662.016" gradientUnits="userSpaceOnUse">
<stop stop-color="#F0C549"/>
<stop offset="1" stop-color="#E7BC48" stop-opacity="0"/>
</linearGradient>
<linearGradient id="paint11_linear_308_1001" x1="675.904" y1="679.859" x2="675.904" y2="742.526" gradientUnits="userSpaceOnUse">
<stop stop-color="#F0C549"/>
<stop offset="1" stop-color="#E7BC48" stop-opacity="0"/>
</linearGradient>
<linearGradient id="paint12_linear_308_1001" x1="690.199" y1="666.117" x2="690.199" y2="720.126" gradientUnits="userSpaceOnUse">
<stop stop-color="#F0C549"/>
<stop offset="1" stop-color="#E7BC48" stop-opacity="0"/>
</linearGradient>
<linearGradient id="paint13_linear_308_1001" x1="701.316" y1="630.433" x2="701.316" y2="666.516" gradientUnits="userSpaceOnUse">
<stop stop-color="#F0C549"/>
<stop offset="1" stop-color="#E7BC48" stop-opacity="0"/>
</linearGradient>
<linearGradient id="paint14_linear_308_1001" x1="704.488" y1="618.436" x2="704.488" y2="650.022" gradientUnits="userSpaceOnUse">
<stop stop-color="#F0C549"/>
<stop offset="1" stop-color="#E7BC48" stop-opacity="0"/>
</linearGradient>
<linearGradient id="paint15_linear_308_1001" x1="714.564" y1="610.735" x2="714.564" y2="642.068" gradientUnits="userSpaceOnUse">
<stop stop-color="#F0C549"/>
<stop offset="1" stop-color="#E7BC48" stop-opacity="0"/>
</linearGradient>
<linearGradient id="paint16_linear_308_1001" x1="737.066" y1="670.293" x2="737.066" y2="723.679" gradientUnits="userSpaceOnUse">
<stop stop-color="#F0C549"/>
<stop offset="1" stop-color="#E7BC48" stop-opacity="0"/>
</linearGradient>
<linearGradient id="paint17_linear_308_1001" x1="718.658" y1="708.42" x2="718.658" y2="781.028" gradientUnits="userSpaceOnUse">
<stop stop-color="#F0C549"/>
<stop offset="1" stop-color="#E7BC48" stop-opacity="0"/>
</linearGradient>
<linearGradient id="paint18_linear_308_1001" x1="733.939" y1="620.207" x2="733.939" y2="650.099" gradientUnits="userSpaceOnUse">
<stop stop-color="#F0C549"/>
<stop offset="1" stop-color="#E7BC48" stop-opacity="0"/>
</linearGradient>
<linearGradient id="paint19_linear_308_1001" x1="551.808" y1="618.199" x2="551.808" y2="666.37" gradientUnits="userSpaceOnUse">
<stop stop-color="#F0C549"/>
<stop offset="1" stop-color="#E7BC48" stop-opacity="0"/>
</linearGradient>
<linearGradient id="paint20_linear_308_1001" x1="541.031" y1="613.43" x2="541.031" y2="679.147" gradientUnits="userSpaceOnUse">
<stop stop-color="#F0C549"/>
<stop offset="1" stop-color="#E7BC48" stop-opacity="0"/>
</linearGradient>
<linearGradient id="paint21_linear_308_1001" x1="516.933" y1="623.681" x2="516.933" y2="695.223" gradientUnits="userSpaceOnUse">
<stop stop-color="#F0C549"/>
<stop offset="1" stop-color="#E7BC48" stop-opacity="0"/>
</linearGradient>
<linearGradient id="paint22_linear_308_1001" x1="504.328" y1="602.748" x2="504.328" y2="669.272" gradientUnits="userSpaceOnUse">
<stop stop-color="#F0C549"/>
<stop offset="1" stop-color="#E7BC48" stop-opacity="0"/>
</linearGradient>
<linearGradient id="paint23_linear_308_1001" x1="511.14" y1="603.39" x2="511.14" y2="670.11" gradientUnits="userSpaceOnUse">
<stop stop-color="#F0C549"/>
<stop offset="1" stop-color="#E7BC48" stop-opacity="0"/>
</linearGradient>
<linearGradient id="paint24_linear_308_1001" x1="499.175" y1="622.703" x2="499.175" y2="693.97" gradientUnits="userSpaceOnUse">
<stop stop-color="#F0C549"/>
<stop offset="1" stop-color="#E7BC48" stop-opacity="0"/>
</linearGradient>
<linearGradient id="paint25_linear_308_1001" x1="473.074" y1="588.636" x2="473.074" y2="644.007" gradientUnits="userSpaceOnUse">
<stop stop-color="#F0C549"/>
<stop offset="1" stop-color="#E7BC48" stop-opacity="0"/>
</linearGradient>
<linearGradient id="paint26_linear_308_1001" x1="477.556" y1="613.897" x2="477.556" y2="678.01" gradientUnits="userSpaceOnUse">
<stop stop-color="#F0C549"/>
<stop offset="1" stop-color="#E7BC48" stop-opacity="0"/>
</linearGradient>
<linearGradient id="paint27_linear_308_1001" x1="463.073" y1="595.911" x2="463.073" y2="647.447" gradientUnits="userSpaceOnUse">
<stop stop-color="#F0C549"/>
<stop offset="1" stop-color="#E7BC48" stop-opacity="0"/>
</linearGradient>
<linearGradient id="paint28_linear_308_1001" x1="438.644" y1="631.504" x2="438.644" y2="674.663" gradientUnits="userSpaceOnUse">
<stop stop-color="#F0C549"/>
<stop offset="1" stop-color="#E7BC48" stop-opacity="0"/>
</linearGradient>
<linearGradient id="paint29_linear_308_1001" x1="418.915" y1="615.598" x2="418.915" y2="660.815" gradientUnits="userSpaceOnUse">
<stop stop-color="#F0C549"/>
<stop offset="1" stop-color="#E7BC48" stop-opacity="0"/>
</linearGradient>
<linearGradient id="paint30_linear_308_1001" x1="382.009" y1="631.193" x2="382.009" y2="686.558" gradientUnits="userSpaceOnUse">
<stop stop-color="#F0C549"/>
<stop offset="1" stop-color="#E7BC48" stop-opacity="0"/>
</linearGradient>
<linearGradient id="paint31_linear_308_1001" x1="337.392" y1="617.874" x2="337.392" y2="659.239" gradientUnits="userSpaceOnUse">
<stop stop-color="#F0C549"/>
<stop offset="1" stop-color="#E7BC48" stop-opacity="0"/>
</linearGradient>
<linearGradient id="paint32_linear_308_1001" x1="358.423" y1="641.984" x2="358.423" y2="697.35" gradientUnits="userSpaceOnUse">
<stop stop-color="#F0C549"/>
<stop offset="1" stop-color="#E7BC48" stop-opacity="0"/>
</linearGradient>
<linearGradient id="paint33_linear_308_1001" x1="296.641" y1="651.779" x2="296.641" y2="703.87" gradientUnits="userSpaceOnUse">
<stop stop-color="#F0C549"/>
<stop offset="1" stop-color="#E7BC48" stop-opacity="0"/>
</linearGradient>
<linearGradient id="paint34_linear_308_1001" x1="275.293" y1="626.704" x2="275.293" y2="662.989" gradientUnits="userSpaceOnUse">
<stop stop-color="#F0C549"/>
<stop offset="1" stop-color="#E7BC48" stop-opacity="0"/>
</linearGradient>
<linearGradient id="paint35_linear_308_1001" x1="254.543" y1="604.878" x2="254.543" y2="628.501" gradientUnits="userSpaceOnUse">
<stop stop-color="#F0C549"/>
<stop offset="1" stop-color="#E7BC48" stop-opacity="0"/>
</linearGradient>
<linearGradient id="paint36_linear_308_1001" x1="223.316" y1="631.833" x2="223.316" y2="669.413" gradientUnits="userSpaceOnUse">
<stop stop-color="#F0C549"/>
<stop offset="1" stop-color="#E7BC48" stop-opacity="0"/>
</linearGradient>
<linearGradient id="paint37_linear_308_1001" x1="219.394" y1="651.876" x2="219.394" y2="694.805" gradientUnits="userSpaceOnUse">
<stop stop-color="#F0C549"/>
<stop offset="1" stop-color="#E7BC48" stop-opacity="0"/>
</linearGradient>
<linearGradient id="paint38_linear_308_1001" x1="200.829" y1="666.816" x2="200.829" y2="716.81" gradientUnits="userSpaceOnUse">
<stop stop-color="#F0C549"/>
<stop offset="1" stop-color="#E7BC48" stop-opacity="0"/>
</linearGradient>
<linearGradient id="paint39_linear_308_1001" x1="317.509" y1="628.919" x2="251.753" y2="646.24" gradientUnits="userSpaceOnUse">
<stop stop-color="#F0C549"/>
<stop offset="1" stop-color="#E7BC48" stop-opacity="0"/>
</linearGradient>
<linearGradient id="paint40_linear_308_1001" x1="538.211" y1="613.239" x2="538.211" y2="675.843" gradientUnits="userSpaceOnUse">
<stop stop-color="#F0C549"/>
<stop offset="1" stop-color="#E7BC48" stop-opacity="0"/>
</linearGradient>
<linearGradient id="paint41_linear_308_1001" x1="534.805" y1="604.781" x2="534.805" y2="662.485" gradientUnits="userSpaceOnUse">
<stop stop-color="#F0C549"/>
<stop offset="1" stop-color="#E7BC48" stop-opacity="0"/>
</linearGradient>
<linearGradient id="paint42_linear_308_1001" x1="480.977" y1="605.779" x2="480.977" y2="638.749" gradientUnits="userSpaceOnUse">
<stop stop-color="#F0C549"/>
<stop offset="1" stop-color="#E7BC48" stop-opacity="0"/>
</linearGradient>
<linearGradient id="paint43_linear_308_1001" x1="480.068" y1="619.638" x2="479.731" y2="700.781" gradientUnits="userSpaceOnUse">
<stop stop-color="#F0C549"/>
<stop offset="1" stop-color="#E7BC48" stop-opacity="0"/>
</linearGradient>
<linearGradient id="paint44_linear_308_1001" x1="234.817" y1="665.682" x2="235.013" y2="725.517" gradientUnits="userSpaceOnUse">
<stop stop-color="#F0C549"/>
<stop offset="1" stop-color="#E7BC48" stop-opacity="0"/>
</linearGradient>
<linearGradient id="paint45_linear_308_1001" x1="720.408" y1="670.765" x2="720.806" y2="737.799" gradientUnits="userSpaceOnUse">
<stop stop-color="#F0C549"/>
<stop offset="1" stop-color="#E7BC48" stop-opacity="0"/>
</linearGradient>
<linearGradient id="paint46_linear_308_1001" x1="315.864" y1="640.025" x2="316.054" y2="699.859" gradientUnits="userSpaceOnUse">
<stop stop-color="#F0C549"/>
<stop offset="1" stop-color="#E7BC48" stop-opacity="0"/>
</linearGradient>
<linearGradient id="paint47_linear_308_1001" x1="397.072" y1="614.634" x2="397.263" y2="674.468" gradientUnits="userSpaceOnUse">
<stop stop-color="#F0C549"/>
<stop offset="1" stop-color="#E7BC48" stop-opacity="0"/>
</linearGradient>
<linearGradient id="paint48_linear_308_1001" x1="606.033" y1="627.794" x2="605.809" y2="692.524" gradientUnits="userSpaceOnUse">
<stop stop-color="#F0C549"/>
<stop offset="1" stop-color="#E7BC48" stop-opacity="0"/>
</linearGradient>
<linearGradient id="paint49_linear_308_1001" x1="638.701" y1="633.551" x2="638.465" y2="693.644" gradientUnits="userSpaceOnUse">
<stop stop-color="#F0C549"/>
<stop offset="1" stop-color="#E7BC48" stop-opacity="0"/>
</linearGradient>
<linearGradient id="paint50_linear_308_1001" x1="702.964" y1="635.721" x2="702.819" y2="682.631" gradientUnits="userSpaceOnUse">
<stop stop-color="#F0C549"/>
<stop offset="1" stop-color="#E7BC48" stop-opacity="0"/>
</linearGradient>
<linearGradient id="paint51_linear_308_1001" x1="488.488" y1="610.962" x2="488.174" y2="689.374" gradientUnits="userSpaceOnUse">
<stop stop-color="#F0C549"/>
<stop offset="1" stop-color="#E7BC48" stop-opacity="0"/>
</linearGradient>
<linearGradient id="paint52_linear_308_1001" x1="496.613" y1="611.293" x2="496.287" y2="690.803" gradientUnits="userSpaceOnUse">
<stop stop-color="#F0C549"/>
<stop offset="1" stop-color="#E7BC48" stop-opacity="0"/>
</linearGradient>
<linearGradient id="paint53_linear_308_1001" x1="535.626" y1="616.609" x2="535.94" y2="695.027" gradientUnits="userSpaceOnUse">
<stop stop-color="#F0C549"/>
<stop offset="1" stop-color="#E7BC48" stop-opacity="0"/>
</linearGradient>
<linearGradient id="paint54_linear_308_1001" x1="527.19" y1="597.24" x2="527.442" y2="667.101" gradientUnits="userSpaceOnUse">
<stop stop-color="#F0C549"/>
<stop offset="1" stop-color="#E7BC48" stop-opacity="0"/>
</linearGradient>
<linearGradient id="paint55_linear_308_1001" x1="519.059" y1="591.773" x2="519.295" y2="659.57" gradientUnits="userSpaceOnUse">
<stop stop-color="#F0C549"/>
<stop offset="1" stop-color="#E7BC48" stop-opacity="0"/>
</linearGradient>
<linearGradient id="paint56_linear_308_1001" x1="726.516" y1="643.449" x2="726.74" y2="693.909" gradientUnits="userSpaceOnUse">
<stop stop-color="#F0C549"/>
<stop offset="1" stop-color="#E7BC48" stop-opacity="0"/>
</linearGradient>
<linearGradient id="paint57_linear_308_1001" x1="732.056" y1="676.112" x2="732.454" y2="743.153" gradientUnits="userSpaceOnUse">
<stop stop-color="#F0C549"/>
<stop offset="1" stop-color="#E7BC48" stop-opacity="0"/>
</linearGradient>
<linearGradient id="paint58_linear_308_1001" x1="216.918" y1="660.464" x2="216.649" y2="716.587" gradientUnits="userSpaceOnUse">
<stop stop-color="#F0C549"/>
<stop offset="1" stop-color="#E7BC48" stop-opacity="0"/>
</linearGradient>
<linearGradient id="paint59_linear_308_1001" x1="210.495" y1="648.235" x2="210.299" y2="696.463" gradientUnits="userSpaceOnUse">
<stop stop-color="#F0C549"/>
<stop offset="1" stop-color="#E7BC48" stop-opacity="0"/>
</linearGradient>
<linearGradient id="paint60_linear_308_1001" x1="204.91" y1="650.248" x2="204.697" y2="698.7" gradientUnits="userSpaceOnUse">
<stop stop-color="#F0C549"/>
<stop offset="1" stop-color="#E7BC48" stop-opacity="0"/>
</linearGradient>
</defs>
</svg>
